<svg width="0" height="0" class="hidden">
  <symbol fill="none" xmlns="http://www.w3.org/2000/svg" viewBox="0 0 36 36" id="certificate">
    <path d="M27.2216 9.35938L22.6825 4.82031C22.1903 4.32812 21.4794 4 20.8232 4H9.66691C8.19035 4.05469 7.04191 5.20312 7.04191 6.67969V13.0781C6.71379 13.0781 6.38566 13.0234 5.67473 12.8047C5.62004 12.8047 5.51066 12.8047 5.40129 12.8047C5.12785 12.8047 4.85441 12.9141 4.69035 13.0781C3.70598 14.1172 3.76066 14.0625 2.39348 14.4453C2.01066 14.5547 1.73723 14.8281 1.62785 15.2109C1.29973 16.5781 1.29973 16.5234 0.31535 17.5078C0.0419129 17.7812 -0.0674621 18.2188 0.0419129 18.6016C0.424725 19.9141 0.424725 19.9141 0.0419129 21.2266C-0.0674621 21.6094 0.0419129 22.0469 0.31535 22.3203C1.29973 23.3047 1.29973 23.3047 1.62785 24.6172C1.73723 25 2.01066 25.2734 2.39348 25.3828C2.50285 25.4375 2.55754 25.4375 2.66691 25.4375V31.125C2.66691 31.4531 2.77629 31.7266 3.04973 31.8906C3.32316 32.0547 3.65129 32.0547 3.92473 31.9453L7.04191 30.3594L10.1044 31.9453C10.2685 32 10.3779 32 10.5419 32H25.4169C26.8388 32 28.0419 30.8516 28.0419 29.4297V11.2188C28.0419 10.5625 27.7138 9.85156 27.2216 9.35938ZM21.0419 5.80469C21.1513 5.85938 21.3153 5.91406 21.4247 6.02344L26.0185 10.6172C26.1278 10.7266 26.1825 10.8906 26.2372 11.0547H21.0419V5.80469ZM1.8466 21.3359C2.12004 20.1328 2.12004 19.6953 1.8466 18.4922C2.66691 17.6172 2.88566 17.2344 3.21379 16.0312C4.41691 15.7031 4.74504 15.4844 5.62004 14.6094C6.16691 14.7734 6.54973 14.8281 7.04191 14.8281C7.47941 14.8281 7.86223 14.7734 8.4091 14.6094C9.22941 15.4844 9.61223 15.7031 10.8154 16.0312C11.1435 17.2344 11.3075 17.5625 12.1825 18.4922C11.8544 19.6953 11.8544 20.1328 12.1825 21.3359C11.3622 22.2109 11.1435 22.5938 10.8154 23.7969C9.99504 24.0156 9.50285 24.1797 8.73723 24.8359C8.19035 24.6172 7.64348 24.5078 7.04191 24.5078C6.38566 24.5078 5.83879 24.6172 5.29191 24.8906C4.52629 24.2344 4.0341 24.0156 3.21379 23.7969C2.88566 22.5938 2.7216 22.2656 1.8466 21.3359ZM7.42473 28.6094C7.15129 28.5 6.87785 28.5 6.60441 28.6094L4.41691 29.7578V26.4219C4.41691 26.4766 4.41691 26.4766 4.41691 26.4766C4.63566 26.6953 4.9091 26.75 5.12785 26.75C5.3466 26.75 5.51066 26.6953 5.72941 26.6406C6.11223 26.3672 6.54973 26.2578 7.04191 26.2578C7.47941 26.2578 7.91691 26.3672 8.29973 26.5859C8.51848 26.75 8.68254 26.75 8.90129 26.75C9.17473 26.75 9.39348 26.6953 9.61223 26.4766C9.61223 26.4766 9.61223 26.4766 9.66691 26.4219V29.7578L7.42473 28.6094ZM26.2919 29.4297C26.2919 29.8672 25.8544 30.3047 25.4169 30.3047H11.4169V25.4375C11.4716 25.4375 11.5263 25.4375 11.6357 25.3828C12.0185 25.2734 12.2919 25 12.4013 24.6172C12.7294 23.25 12.7294 23.3047 13.7138 22.3203C13.9872 22.0469 14.0966 21.6094 13.9872 21.2266C13.6044 19.9141 13.6044 19.9141 13.9872 18.6016C14.0966 18.2188 13.9872 17.7812 13.7138 17.5078C12.7294 16.5234 12.7294 16.5234 12.4013 15.2109C12.2919 14.8281 12.0185 14.5547 11.6357 14.4453C10.3232 14.0625 10.3232 14.1172 9.33879 13.0781C9.17473 12.9141 8.95598 12.8594 8.79191 12.8047V6.67969C8.79191 6.1875 9.17473 5.75 9.66691 5.75H19.2919V11.4922C19.2919 12.2031 19.8388 12.75 20.6044 12.75H26.2919V29.4297Z" fill="#5C8EE6"></path>
  </symbol>
  <symbol fill="none" xmlns="http://www.w3.org/2000/svg" viewBox="0 0 36 36" id="delevery">
    <path d="M1.75 21.5H20.125C21.0547 21.5 21.875 20.7344 21.875 19.75V7.5C21.875 6.57031 21.0547 5.75 20.125 5.75H1.75C0.765625 5.75 0 6.57031 0 7.5V19.75C0 20.7344 0.765625 21.5 1.75 21.5ZM1.75 7.5H20.125V19.75H1.75V7.5ZM33.9609 15.2656L30.7344 12.0391C30.0781 11.3828 29.2031 11.0547 28.2734 11.0547H24.5C24.0078 11.0547 23.625 11.4375 23.625 11.9297V23.3047H12.4688C11.8125 22.7578 10.9922 22.4297 10.0625 22.4297C8.80469 22.4297 7.71094 22.9766 7 23.9062C6.23438 22.9766 5.14062 22.375 3.9375 22.375C1.75 22.375 0 24.1797 0 26.3125C0 28.5 1.75 30.25 3.9375 30.25C5.14062 30.25 6.23438 29.7031 7 28.7734C7.71094 29.7031 8.80469 30.25 10.0625 30.25C12.1953 30.25 14 28.5 14 26.3125C14 25.875 13.8906 25.4375 13.7266 25H24.5547C24.3906 25.7656 24.4453 26.5312 24.7188 27.3516C25.1562 28.7188 26.3594 29.8125 27.7812 30.1406C30.625 30.8516 33.25 28.6641 33.25 25.875C33.25 25.6016 33.1953 25.3281 33.1406 25H34.125C34.5625 25 35 24.6172 35 24.125V17.7266C35 16.7969 34.6172 15.9219 33.9609 15.2656ZM3.9375 28.5C2.67969 28.5 1.75 27.5703 1.75 26.3125C1.75 25.1094 2.67969 24.125 3.9375 24.125C5.14062 24.125 6.125 25.1094 6.125 26.3125C6.125 27.5703 5.14062 28.5 3.9375 28.5ZM10.0625 28.5C8.80469 28.5 7.875 27.5703 7.875 26.3125C7.875 25.1094 8.80469 24.125 10.0625 24.125C11.2656 24.125 12.25 25.1094 12.25 26.3125C12.25 27.5703 11.2656 28.5 10.0625 28.5ZM25.375 12.75H28.2734C28.7656 12.75 29.2031 12.9688 29.5312 13.2969L32.4844 16.25H25.375V12.75ZM28.875 28.5C27.3984 28.5 26.25 27.3516 26.25 25.875C26.25 24.4531 27.3984 23.25 28.875 23.25C30.2969 23.25 31.5 24.4531 31.5 25.875C31.5 27.3516 30.2969 28.5 28.875 28.5ZM33.25 23.25H32.3203C31.5547 22.2109 30.2969 21.5 28.875 21.5C27.3984 21.5 26.1953 22.2109 25.375 23.25V18H33.25V23.25ZM5.6875 18H6.5625C6.78125 18 7 17.8359 7 17.5625V9.6875C7 9.46875 6.78125 9.25 6.5625 9.25H5.6875C5.41406 9.25 5.25 9.46875 5.25 9.6875V17.5625C5.25 17.8359 5.41406 18 5.6875 18ZM10.9375 18H11.8125C12.0312 18 12.25 17.8359 12.25 17.5625V9.6875C12.25 9.46875 12.0312 9.25 11.8125 9.25H10.9375C10.6641 9.25 10.5 9.46875 10.5 9.6875V17.5625C10.5 17.8359 10.6641 18 10.9375 18ZM16.1875 18H17.0625C17.2812 18 17.5 17.8359 17.5 17.5625V9.6875C17.5 9.46875 17.2812 9.25 17.0625 9.25H16.1875C15.9141 9.25 15.75 9.46875 15.75 9.6875V17.5625C15.75 17.8359 15.9141 18 16.1875 18Z" fill="#5C8EE6"></path>
  </symbol>
  <symbol fill="none" xmlns="http://www.w3.org/2000/svg" viewBox="0 0 36 36" id="Frame 33">
    <path d="M17.1172 23.25C15.5312 23.25 14.8203 24.125 12.25 24.125C9.625 24.125 8.91406 23.25 7.32812 23.25C3.28125 23.25 0 26.5859 0 30.6328C0 31.3984 0.601562 32 1.36719 32H23.0781C23.8438 32 24.5 31.3984 24.5 30.6328C24.5 26.5859 21.1641 23.25 17.1172 23.25ZM1.75 30.25C1.91406 27.3516 4.375 25.0547 7.32812 25C8.42188 25 9.46094 25.875 12.25 25.875C15.0391 25.875 16.0234 25 17.1172 25C20.0703 25.0547 22.5312 27.3516 22.6953 30.25H1.75ZM4.8125 12.75H5.46875C5.30469 13.3516 5.25 13.8984 5.25 14.5C5.25 18.3828 8.36719 21.5 12.25 21.5C16.0781 21.5 19.25 18.3828 19.25 14.5C19.1953 13.8984 19.1406 13.3516 18.9766 12.75H19.6875C19.9062 12.75 20.125 12.5859 20.125 12.3125V11.4375C20.125 11.2188 19.9062 11 19.6875 11H19.25C19.25 8.21094 17.3359 5.85938 14.7109 5.14844C14.4922 4.49219 13.8359 4.05469 13.125 4H11.375C10.6094 4.05469 9.95312 4.49219 9.73438 5.14844C7.16406 5.85938 5.25 8.21094 5.25 11H4.8125C4.53906 11 4.375 11.2188 4.375 11.4375V12.3125C4.375 12.5859 4.53906 12.75 4.8125 12.75ZM14.875 7.00781C16.4062 7.71875 17.4453 9.25 17.5 11H14.875V7.00781ZM11.375 5.75H13.125V11H11.375V5.75ZM7 11C7 9.25 8.03906 7.71875 9.625 7.00781V11H7ZM7.32812 12.75H17.1719C17.3359 13.2969 17.4453 13.8984 17.5 14.5C17.5 17.3984 15.0938 19.75 12.25 19.75C9.35156 19.75 7 17.3984 7 14.5C7 13.8984 7.10938 13.2969 7.32812 12.75Z" fill="#5C8EE6"></path>
  </symbol>
  <symbol fill="none" xmlns="http://www.w3.org/2000/svg" viewBox="0 0 140 44" id="logo-black">
    <g clip-path="url(#clip0_191_1668)">
      <path fill-rule="evenodd" clip-rule="evenodd" d="M21.9928 4.89351C24.2857 4.89351 26.4733 5.34481 28.4715 6.16361V12.3539V21.8184C28.4715 25.3669 25.5949 28.2436 22.0465 28.2436C20.5375 28.2436 19.15 27.7235 18.0536 26.8527V32.5405C19.2966 33.0038 20.6421 33.2569 22.0465 33.2569C29.0248 33.2569 33.5146 27.7473 33.5146 21.0594V3.25613C30.1638 1.19127 26.2173 0 21.9928 0C9.84658 0 0 9.84658 0 21.9928C0 28.9293 3.21131 35.1156 8.22825 39.1466V32.1397C6.13243 29.3013 4.89351 25.7918 4.89351 21.9928C4.89351 12.5492 12.5492 4.89351 21.9928 4.89351Z" fill="#292D33"></path>
      <path fill-rule="evenodd" clip-rule="evenodd" d="M22.0619 39.1065C19.7688 39.1065 17.5811 38.6552 15.583 37.8364V31.6461V22.1815C15.583 18.6331 18.4597 15.7563 22.0082 15.7563C23.5171 15.7563 24.9044 16.2765 26.0008 17.1473V11.4594C24.7578 10.9962 23.4125 10.7431 22.0082 10.7431C15.0299 10.7431 10.54 16.2527 10.54 22.9406V40.7438C13.8906 42.8087 17.8371 44 22.0619 44C34.2081 44 44.0546 34.1534 44.0546 22.0072C44.0546 15.0707 40.8433 8.88436 35.8264 4.85339V11.8603C37.9222 14.6987 39.1611 18.2082 39.1611 22.0072C39.1611 31.4508 31.5055 39.1065 22.0619 39.1065Z" fill="#5C8EE6"></path>
      <path d="M71.3035 22.5536C71.3035 22.6595 71.2612 22.7443 71.1976 22.8079C71.1339 22.8716 71.028 22.9138 70.9221 22.9138H68.676C68.5701 22.9138 68.4853 22.8716 68.4216 22.8079C68.3582 22.7443 68.2946 22.6595 68.2735 22.5536L67.2985 18.5275H62.4249L61.45 22.5536C61.4289 22.6595 61.3655 22.7443 61.3019 22.8079C61.2382 22.8716 61.1534 22.9138 61.0475 22.9138H58.8014C58.6955 22.9138 58.5896 22.8716 58.5259 22.8079C58.4622 22.7443 58.42 22.6595 58.42 22.5536C58.42 22.5324 58.42 22.5324 58.4411 22.5113C58.4411 22.4902 58.4411 22.4688 58.4411 22.4476L61.9165 9.16164C62.0435 8.67402 62.2342 8.27152 62.4672 7.99603C62.7004 7.72055 62.9759 7.48762 63.2514 7.33916C63.5269 7.19102 63.8023 7.10623 64.099 7.06367C64.3744 7.02144 64.6288 7 64.8617 7C65.095 7 65.349 7.02144 65.6456 7.06367C65.9211 7.10623 66.218 7.19102 66.4935 7.33916C66.769 7.48762 67.0231 7.72055 67.2563 7.99603C67.4892 8.27152 67.6799 8.67402 67.8073 9.16164L71.2824 22.4476C71.2824 22.4688 71.2823 22.4902 71.3035 22.5113C71.3035 22.5324 71.3035 22.5324 71.3035 22.5536ZM65.2009 9.81852C65.1795 9.69117 65.1372 9.60638 65.095 9.54304C65.0524 9.50048 64.9676 9.47936 64.8617 9.47936C64.7558 9.47936 64.671 9.50048 64.6288 9.54304C64.5862 9.60638 64.544 9.69117 64.5226 9.81852L62.997 16.1118H66.7265L65.2009 9.81852Z" fill="#292D33"></path>
      <path d="M81.7927 22.3417C81.7927 22.4902 81.7712 22.5961 81.7079 22.6594C81.6442 22.7231 81.5172 22.7653 81.3687 22.7868C81.2206 22.829 80.9873 22.8716 80.7119 22.8927C80.4153 22.9349 80.0975 22.9775 79.7584 22.9986C79.4192 23.0197 79.0804 23.0408 78.7201 23.0623C78.3598 23.0834 78.0418 23.0834 77.7663 23.0834C77.0672 23.0834 76.4314 23.0197 75.8382 22.9138C75.2447 22.8079 74.7363 22.575 74.2912 22.2569C73.8462 21.9392 73.5073 21.5153 73.253 20.9432C72.9986 20.3711 72.8716 19.6505 72.8716 18.7393V7.59352C72.8716 7.48761 72.9138 7.38139 72.9986 7.29692C73.0834 7.21213 73.1893 7.16958 73.2955 7.16958H75.3932C75.4991 7.16958 75.605 7.21213 75.6898 7.29692C75.7746 7.38139 75.8171 7.48761 75.8171 7.59352V18.7393C75.8171 19.4387 75.9441 19.926 76.1771 20.1804C76.4103 20.4344 76.8554 20.5618 77.4697 20.5618H81.3687C81.4746 20.5618 81.5805 20.604 81.6653 20.6888C81.7501 20.7736 81.7927 20.8795 81.7927 20.9854V22.3417ZM86.7511 22.4902C86.7511 22.5961 86.7085 22.702 86.6237 22.7868C86.5393 22.8716 86.433 22.9138 86.3271 22.9138H84.2295C84.1236 22.9138 84.0177 22.8716 83.9329 22.7868C83.8481 22.702 83.8055 22.5961 83.8055 22.4902V7.57241C83.8055 7.46618 83.8481 7.36027 83.9329 7.27548C84.0177 7.21214 84.1236 7.16958 84.2295 7.16958H86.3271C86.433 7.16958 86.5393 7.21214 86.6237 7.27548C86.7085 7.36027 86.7511 7.46618 86.7511 7.57241V22.4902ZM101.626 22.5535C101.626 22.6594 101.584 22.7442 101.52 22.8079C101.457 22.8716 101.351 22.9138 101.245 22.9138H98.9988C98.8929 22.9138 98.8081 22.8716 98.7444 22.8079C98.6811 22.7442 98.6174 22.6594 98.5963 22.5535L97.6214 18.5275H92.7478L91.7732 22.5535C91.7517 22.6594 91.6884 22.7442 91.6247 22.8079C91.561 22.8716 91.4766 22.9138 91.3703 22.9138H89.1242C89.0183 22.9138 88.9124 22.8716 88.8487 22.8079C88.7854 22.7442 88.7428 22.6594 88.7428 22.5535C88.7428 22.5324 88.7428 22.5324 88.7639 22.5113C88.7639 22.4902 88.7639 22.4687 88.7639 22.4476L92.2393 9.16164C92.3664 8.67402 92.5571 8.27152 92.7903 7.99603C93.0232 7.72055 93.2987 7.48762 93.5742 7.33916C93.8497 7.19102 94.1252 7.10623 94.4218 7.06367C94.6973 7.02144 94.9516 7 95.1846 7C95.4178 7 95.6719 7.02144 95.9688 7.06367C96.2443 7.10623 96.5409 7.19102 96.8164 7.33916C97.0918 7.48762 97.3459 7.72055 97.5791 7.99603C97.8121 8.27152 98.0031 8.67402 98.1301 9.16164L101.605 22.4476C101.605 22.4687 101.605 22.4902 101.626 22.5113C101.626 22.5324 101.626 22.5324 101.626 22.5535ZM95.5237 9.81851C95.5026 9.69117 95.46 9.60638 95.4178 9.54303C95.3753 9.50047 95.2905 9.47936 95.1846 9.47936C95.0787 9.47936 94.9939 9.50047 94.9516 9.54303C94.9091 9.60638 94.8668 9.69117 94.8457 9.81851L93.3198 16.1118H97.0493L95.5237 9.81851ZM115.527 22.0662C115.527 22.2995 115.442 22.5113 115.294 22.6594C115.124 22.829 114.913 22.9138 114.679 22.9138H112.539C112.285 22.9138 112.052 22.8716 111.84 22.8079C111.607 22.7442 111.416 22.5324 111.247 22.151L106.542 11.8314C106.479 11.7255 106.415 11.6618 106.352 11.6618C106.288 11.6618 106.246 11.7255 106.246 11.8314V22.4902C106.246 22.5961 106.203 22.702 106.14 22.7868C106.055 22.8716 105.949 22.9138 105.843 22.9138H104.042C103.936 22.9138 103.83 22.8716 103.745 22.7868C103.661 22.702 103.618 22.5961 103.618 22.4902V8.01714C103.618 7.78422 103.703 7.57241 103.872 7.40283C104.021 7.25437 104.233 7.16958 104.466 7.16958H106.754C106.988 7.16958 107.157 7.21213 107.305 7.29692C107.433 7.38139 107.56 7.57241 107.687 7.84757L112.624 18.7393C112.666 18.8452 112.73 18.9089 112.794 18.9089C112.857 18.9089 112.899 18.8452 112.899 18.7182V7.57241C112.899 7.29692 113.027 7.16958 113.302 7.16958H115.124C115.4 7.16958 115.527 7.29692 115.527 7.57241V22.0662ZM128.072 22.2569C128.072 22.4054 128.029 22.5113 127.945 22.575C127.86 22.6383 127.754 22.702 127.605 22.7442C127.521 22.7653 127.372 22.8079 127.181 22.829C126.97 22.8716 126.715 22.9138 126.419 22.9564C126.122 22.9775 125.783 23.0197 125.423 23.0408C125.063 23.0623 124.66 23.0834 124.257 23.0834C123.622 23.0834 122.944 22.9986 122.244 22.8079C121.545 22.6172 120.888 22.278 120.316 21.7907C119.723 21.3034 119.256 20.6466 118.854 19.8201C118.472 18.9937 118.282 17.9128 118.282 16.5991V13.4843C118.282 12.1494 118.472 11.0686 118.854 10.221C119.256 9.39457 119.723 8.7377 120.316 8.2504C120.888 7.76311 121.545 7.44506 122.244 7.25436C122.944 7.08478 123.622 7 124.257 7C124.66 7 125.063 7.02144 125.423 7.04255C125.783 7.06367 126.122 7.10623 126.419 7.12734C126.715 7.16958 126.97 7.21213 127.181 7.25436C127.372 7.29692 127.521 7.31804 127.605 7.33916C127.754 7.38139 127.86 7.42394 127.945 7.48761C128.029 7.55096 128.072 7.67831 128.072 7.82645V9.24643C128.072 9.37345 128.05 9.47936 127.987 9.56415C127.923 9.64894 127.796 9.69117 127.648 9.69117H127.605C127.415 9.67005 127.203 9.64894 126.948 9.62782C126.673 9.60638 126.398 9.60638 126.101 9.58526C125.804 9.56415 125.507 9.56415 125.19 9.54303C124.872 9.52191 124.575 9.52192 124.3 9.52192C123.855 9.52192 123.431 9.58527 123.071 9.71262C122.689 9.86075 122.371 10.0726 122.096 10.3695C121.821 10.6872 121.609 11.0897 121.46 11.5984C121.312 12.1069 121.227 12.7426 121.227 13.4843V16.5991C121.227 17.3408 121.312 17.9554 121.46 18.4638C121.609 18.9725 121.821 19.3751 122.096 19.6931C122.371 20.0108 122.689 20.2226 123.071 20.35C123.431 20.4981 123.855 20.5618 124.3 20.5618C124.575 20.5618 124.872 20.5618 125.19 20.5407C125.507 20.5192 125.804 20.5192 126.101 20.4981C126.398 20.477 126.673 20.4559 126.948 20.4344C127.203 20.4133 127.415 20.4133 127.605 20.3922H127.648C127.796 20.3922 127.923 20.4344 127.987 20.5192C128.05 20.604 128.072 20.7099 128.072 20.8373V22.2569ZM140.002 22.3417C140.002 22.4902 139.98 22.5961 139.917 22.6594C139.853 22.7231 139.726 22.7653 139.578 22.7868C139.408 22.8079 139.218 22.8501 139.027 22.8716C138.815 22.9138 138.56 22.9563 138.264 22.9775C137.946 22.9986 137.586 23.0408 137.162 23.0623C136.717 23.0834 136.187 23.0834 135.552 23.0834C134.852 23.0834 134.217 23.0197 133.623 22.9138C133.03 22.8079 132.5 22.575 132.076 22.2569C131.631 21.9392 131.271 21.5153 131.017 20.9432C130.763 20.3711 130.635 19.6505 130.635 18.7393V11.3441C130.635 10.4328 130.763 9.71261 131.017 9.1402C131.271 8.56812 131.631 8.12305 132.076 7.80533C132.5 7.48761 133.03 7.27548 133.623 7.16958C134.217 7.06367 134.852 7 135.552 7C136.187 7 136.717 7 137.162 7.02144C137.586 7.04255 137.946 7.08478 138.264 7.10622C138.56 7.12734 138.815 7.16958 139.027 7.19102C139.218 7.23325 139.408 7.27548 139.578 7.29692C139.726 7.31804 139.853 7.36027 139.917 7.42394C139.98 7.48761 140.002 7.59352 140.002 7.74166V9.09797C140.002 9.20387 139.959 9.30978 139.874 9.39457C139.79 9.47936 139.684 9.52192 139.578 9.52192H135.255C134.64 9.52192 134.196 9.64894 133.962 9.90331C133.708 10.1574 133.581 10.6447 133.581 11.3441V13.6327H139.324C139.429 13.6327 139.535 13.675 139.62 13.7598C139.705 13.8446 139.747 13.9505 139.747 14.0564V15.5819C139.747 15.6882 139.705 15.7941 139.62 15.8789C139.535 15.9636 139.429 16.0059 139.324 16.0059H133.581V18.7393C133.581 19.4387 133.708 19.926 133.962 20.1804C134.196 20.4344 134.64 20.5618 135.255 20.5618H139.578C139.684 20.5618 139.79 20.604 139.874 20.6888C139.959 20.7736 140.002 20.8795 140.002 20.9854V22.3417Z" fill="#292D33"></path>
      <path d="M65.8759 29.9868C65.8759 30.5816 65.7677 31.0816 65.565 31.4867C65.3489 31.8921 65.0653 32.2167 64.7002 32.4597C64.349 32.7167 63.9303 32.8921 63.4706 32.9866C62.9979 33.0948 62.4979 33.149 61.9707 33.149C61.7953 33.149 61.5925 33.1354 61.3492 33.1218C61.1195 33.1084 60.9168 33.1084 60.768 33.0948V36.6215C60.768 36.6891 60.7411 36.7567 60.7005 36.8109C60.6465 36.8648 60.579 36.8918 60.5114 36.8918H59.1603C59.0927 36.8918 59.0251 36.8648 58.9709 36.8109C58.917 36.7567 58.89 36.6891 58.89 36.6215V27.3249C58.89 27.1897 58.9306 27.0952 59.0115 27.0276C59.0791 26.9737 59.1873 26.9331 59.3224 26.9198C59.6736 26.8655 60.079 26.8249 60.5384 26.7846C60.998 26.7573 61.4844 26.744 61.9843 26.744C62.4979 26.744 62.9979 26.7979 63.4706 26.8925C63.9303 26.987 64.349 27.1628 64.7002 27.4061C65.0653 27.6494 65.3489 27.9736 65.565 28.3654C65.7677 28.7709 65.8759 29.2708 65.8759 29.8653V29.9868ZM63.9978 29.8517C63.9978 29.2845 63.8354 28.879 63.4979 28.6494C63.16 28.406 62.6464 28.2845 61.9707 28.2845C61.9031 28.2845 61.8086 28.2845 61.7004 28.2845C61.5789 28.2978 61.4707 28.2978 61.3492 28.2978C61.2277 28.3115 61.1195 28.3115 61.025 28.3115C60.9168 28.3248 60.8356 28.3248 60.768 28.3385V31.5679C60.8223 31.5679 60.9032 31.5679 61.025 31.5679C61.1332 31.5816 61.2547 31.5816 61.3762 31.5816C61.498 31.5949 61.6059 31.5949 61.7277 31.5949C61.8355 31.6085 61.9168 31.6085 61.9707 31.6085C62.7003 31.6085 63.2276 31.4734 63.5382 31.2031C63.8491 30.9328 63.9978 30.5274 63.9978 29.9735V29.8517ZM74.6456 36.7297C74.6456 36.8379 74.5917 36.8918 74.4835 36.8918H72.8348C72.7672 36.8918 72.7133 36.8648 72.6727 36.8109C72.6324 36.7567 72.6051 36.6891 72.5648 36.6215L70.6189 33.0272H70.4298C70.2541 33.0272 70.0377 33.0139 69.808 33.0003C69.5784 32.9866 69.3756 32.9866 69.2272 32.9733V36.6215C69.2272 36.6891 69.1999 36.7567 69.1596 36.8109C69.1054 36.8648 69.0378 36.8918 68.9702 36.8918H67.6191C67.5515 36.8918 67.484 36.8648 67.43 36.8109C67.3758 36.7567 67.3488 36.6891 67.3488 36.6215V27.3249C67.3488 27.1897 67.3894 27.0952 67.4703 27.0276C67.5379 26.9737 67.6461 26.9331 67.7812 26.9198C68.1324 26.8655 68.5378 26.8249 68.9975 26.7846C69.4569 26.7573 69.9432 26.744 70.4431 26.744C70.9568 26.744 71.4567 26.7979 71.9297 26.8925C72.3891 27.0007 72.8078 27.1764 73.1593 27.4061C73.5242 27.6358 73.8078 27.9467 74.0241 28.3385C74.2268 28.7302 74.3347 29.2169 74.3347 29.7977V29.9192C74.3347 30.6356 74.1726 31.2301 73.8347 31.6761C73.5105 32.1218 73.0645 32.4597 72.4973 32.676L74.6186 36.6215C74.6319 36.6488 74.6456 36.6891 74.6456 36.7297ZM72.4567 29.7977C72.4567 29.2845 72.2945 28.9196 71.9567 28.6896C71.6188 28.46 71.1052 28.3521 70.4298 28.3521C70.3623 28.3521 70.2674 28.3521 70.1595 28.3521C70.0377 28.3654 69.9299 28.3654 69.808 28.3654C69.6865 28.3791 69.5784 28.3791 69.4838 28.3791C69.3756 28.3924 69.2948 28.3924 69.2272 28.406V31.4464C69.2811 31.4464 69.3623 31.4464 69.4838 31.4464C69.592 31.4597 69.7135 31.4598 69.835 31.4598C69.9568 31.4734 70.0647 31.4734 70.1865 31.4734C70.2947 31.4867 70.3756 31.4867 70.4298 31.4867C71.1322 31.4867 71.6458 31.3789 71.97 31.1492C72.2945 30.9195 72.4567 30.5141 72.4567 29.9192V29.7977Z" fill="#5C8EE6"></path>
      <path d="M83.3208 32.7842C83.3208 33.5272 83.2259 34.176 83.0368 34.7029C82.8341 35.2298 82.5775 35.6622 82.226 36.0001C81.8884 36.3379 81.483 36.5946 81.01 36.7567C80.5507 36.9188 80.037 37 79.4831 37C78.9156 37 78.402 36.9188 77.9426 36.7567C77.4696 36.5946 77.0642 36.3379 76.7267 36.0001C76.3888 35.6622 76.1185 35.2298 75.9291 34.7029C75.7264 34.176 75.6319 33.5272 75.6319 32.7842V30.9598C75.6319 30.2168 75.7264 29.5817 75.9291 29.0411C76.1185 28.5142 76.3888 28.0682 76.7267 27.7303C77.0642 27.3925 77.4696 27.1495 77.9426 26.987C78.402 26.8249 78.9156 26.744 79.4831 26.744C80.037 26.744 80.5507 26.8249 81.01 26.987C81.483 27.1495 81.8884 27.3925 82.226 27.7303C82.5775 28.0682 82.8341 28.5142 83.0368 29.0411C83.2259 29.5817 83.3208 30.2168 83.3208 30.9598V32.7842ZM81.4424 30.9598C81.4424 30.0544 81.2803 29.406 80.9561 28.9869C80.6452 28.5818 80.1452 28.3791 79.4831 28.3791C78.8074 28.3791 78.3075 28.5818 77.9966 28.9869C77.6724 29.406 77.5102 30.0544 77.5102 30.9598V32.7842C77.5102 33.6893 77.6724 34.3381 77.9966 34.7435C78.3075 35.1623 78.8074 35.365 79.4831 35.365C80.1452 35.365 80.6452 35.1623 80.9561 34.7435C81.2803 34.3381 81.4424 33.6893 81.4424 32.7842V30.9598ZM92.3604 32.8651C92.3604 34.2029 91.9956 35.2298 91.2523 35.9325C90.5227 36.6488 89.4688 37 88.1177 37C87.8607 37 87.6177 37 87.3475 36.9864C87.0772 36.9731 86.8205 36.9594 86.5772 36.9461C86.3202 36.9324 86.1042 36.9055 85.9015 36.8918C85.6988 36.8785 85.5367 36.8512 85.4421 36.8379C85.3206 36.8243 85.2394 36.784 85.1855 36.7164C85.1179 36.6488 85.0906 36.554 85.0906 36.4188V27.3249C85.0906 27.1897 85.1179 27.0952 85.1855 27.0276C85.2394 26.9601 85.3206 26.9198 85.4421 26.9061C85.5367 26.8925 85.6988 26.8655 85.9015 26.8522C86.1042 26.8386 86.3202 26.8116 86.5772 26.798C86.8205 26.7846 87.0772 26.771 87.3475 26.7573C87.6177 26.744 87.8607 26.744 88.1177 26.744C89.4688 26.744 90.5227 27.0952 91.2523 27.7979C91.9956 28.5142 92.3604 29.5411 92.3604 30.8789V32.8651ZM90.4824 30.8789C90.4824 30.3789 90.4281 29.9599 90.3066 29.6356C90.1851 29.2978 90.0094 29.0411 89.8067 28.8384C89.5903 28.6494 89.3337 28.5142 89.0501 28.433C88.7528 28.3654 88.4419 28.3248 88.1041 28.3248C87.8474 28.3248 87.6311 28.3248 87.4553 28.3385C87.2799 28.3521 87.1178 28.3521 86.969 28.3654V35.3919C87.1178 35.4056 87.2799 35.4056 87.4553 35.4189C87.6311 35.4325 87.8474 35.4325 88.1041 35.4325C88.4419 35.4325 88.7528 35.3919 89.0501 35.3111C89.3337 35.2435 89.5903 35.1083 89.8067 34.9056C90.0094 34.7165 90.1851 34.4596 90.3066 34.1217C90.4281 33.7975 90.4824 33.3787 90.4824 32.8788V30.8789ZM101.468 33.176C101.468 33.892 101.373 34.5002 101.198 34.9865C101.009 35.4732 100.752 35.8649 100.427 36.1622C100.09 36.4594 99.6978 36.6758 99.2518 36.7973C98.7924 36.9325 98.2925 37 97.7519 37C97.2116 37 96.7117 36.9325 96.2656 36.7973C95.8063 36.6758 95.4145 36.4594 95.0899 36.1622C94.7521 35.8649 94.4954 35.4732 94.3197 34.9865C94.1306 34.5002 94.0361 33.892 94.0361 33.176V27.1088C94.0361 27.0413 94.063 26.9737 94.1173 26.9198C94.1712 26.8792 94.2388 26.8522 94.3064 26.8522H95.6442C95.7117 26.8522 95.7793 26.8792 95.8332 26.9198C95.8872 26.9737 95.9144 27.0413 95.9144 27.1088V33.1894C95.9144 33.5678 95.9414 33.9057 95.9953 34.1893C96.0496 34.4732 96.1441 34.7165 96.2926 34.9056C96.4277 35.0947 96.6168 35.2298 96.8468 35.3244C97.0765 35.4189 97.3871 35.4595 97.7519 35.4595C98.117 35.4595 98.4143 35.4189 98.6573 35.3244C98.887 35.2298 99.0764 35.0947 99.2248 34.9056C99.36 34.7165 99.4545 34.4732 99.5087 34.1893C99.5627 33.9057 99.5896 33.5678 99.5896 33.1894V27.1088C99.5896 27.0413 99.6169 26.9737 99.6709 26.9198C99.7248 26.8792 99.7924 26.8522 99.8599 26.8522H101.198C101.265 26.8522 101.333 26.8792 101.387 26.9198C101.441 26.9737 101.468 27.0413 101.468 27.1088V33.176ZM109.4 36.4731C109.4 36.5676 109.373 36.6352 109.319 36.6758C109.265 36.7164 109.197 36.7567 109.103 36.784C109.048 36.7973 108.954 36.8243 108.832 36.8379C108.697 36.8649 108.535 36.8918 108.346 36.9188C108.157 36.9325 107.941 36.9594 107.711 36.9731C107.481 36.9864 107.224 37 106.968 37C106.562 37 106.13 36.9461 105.684 36.8243C105.238 36.7028 104.819 36.4864 104.454 36.1758C104.076 35.8649 103.779 35.4462 103.522 34.9189C103.279 34.392 103.157 33.703 103.157 32.8651V30.8789C103.157 30.0274 103.279 29.3384 103.522 28.7978C103.779 28.2709 104.076 27.8521 104.454 27.5412C104.819 27.2303 105.238 27.0276 105.684 26.9061C106.13 26.798 106.562 26.744 106.968 26.744C107.224 26.744 107.481 26.7573 107.711 26.771C107.941 26.7846 108.157 26.8116 108.346 26.8249C108.535 26.8522 108.697 26.8792 108.832 26.9061C108.954 26.9331 109.048 26.9467 109.103 26.9601C109.197 26.987 109.265 27.0143 109.319 27.0546C109.373 27.0952 109.4 27.1764 109.4 27.271V28.1764C109.4 28.2572 109.386 28.3248 109.346 28.3791C109.305 28.433 109.224 28.46 109.13 28.46H109.103C108.981 28.4466 108.846 28.433 108.684 28.4194C108.508 28.406 108.332 28.406 108.143 28.3924C107.954 28.3791 107.765 28.3791 107.562 28.3654C107.359 28.3521 107.17 28.3521 106.995 28.3521C106.711 28.3521 106.441 28.3924 106.211 28.4736C105.968 28.5681 105.765 28.7033 105.589 28.8924C105.413 29.0951 105.278 29.352 105.184 29.6763C105.089 30.0005 105.035 30.4059 105.035 30.8789V32.8651C105.035 33.3381 105.089 33.7299 105.184 34.0541C105.278 34.3787 105.413 34.6353 105.589 34.838C105.765 35.0408 105.968 35.1759 106.211 35.2568C106.441 35.3513 106.711 35.3919 106.995 35.3919C107.17 35.3919 107.359 35.3919 107.562 35.3786C107.765 35.365 107.954 35.365 108.143 35.3513C108.332 35.338 108.508 35.3244 108.684 35.3111C108.846 35.2974 108.981 35.2974 109.103 35.2838H109.13C109.224 35.2838 109.305 35.311 109.346 35.365C109.386 35.4189 109.4 35.4865 109.4 35.5677V36.4731ZM117.508 28.1764C117.508 28.2439 117.48 28.3115 117.426 28.3521C117.372 28.3924 117.305 28.4194 117.237 28.4194H114.873V36.6216C114.873 36.6891 114.845 36.7567 114.791 36.811C114.737 36.8649 114.67 36.8918 114.602 36.8918H113.264C113.197 36.8918 113.129 36.8649 113.075 36.811C113.021 36.7567 112.994 36.6891 112.994 36.6216V28.4194H110.63C110.562 28.4194 110.494 28.3924 110.44 28.3521C110.386 28.3115 110.359 28.2439 110.359 28.1764V27.1088C110.359 27.0413 110.386 26.9737 110.44 26.9198C110.494 26.8792 110.562 26.8522 110.63 26.8522H117.237C117.305 26.8522 117.372 26.8792 117.426 26.9198C117.48 26.9737 117.508 27.0413 117.508 27.1088V28.1764ZM120.737 36.6216C120.737 36.6891 120.71 36.7567 120.656 36.811C120.602 36.8649 120.534 36.8918 120.467 36.8918H119.129C119.061 36.8918 118.994 36.8649 118.94 36.811C118.886 36.7567 118.859 36.6891 118.859 36.6216V27.1088C118.859 27.0413 118.886 26.9737 118.94 26.9198C118.994 26.8792 119.061 26.8522 119.129 26.8522H120.467C120.534 26.8522 120.602 26.8792 120.656 26.9198C120.71 26.9737 120.737 27.0413 120.737 27.1088V36.6216ZM130.182 32.7842C130.182 33.5272 130.088 34.176 129.898 34.7029C129.696 35.2298 129.439 35.6622 129.088 36.0001C128.75 36.3379 128.344 36.5946 127.871 36.7567C127.412 36.9188 126.899 37 126.344 37C125.777 37 125.264 36.9188 124.804 36.7567C124.331 36.5946 123.926 36.3379 123.588 36.0001C123.25 35.6622 122.98 35.2298 122.791 34.7029C122.588 34.176 122.494 33.5272 122.494 32.7842V30.9598C122.494 30.2168 122.588 29.5817 122.791 29.0411C122.98 28.5142 123.25 28.0682 123.588 27.7303C123.926 27.3925 124.331 27.1495 124.804 26.987C125.264 26.8249 125.777 26.744 126.344 26.744C126.899 26.744 127.412 26.8249 127.871 26.987C128.344 27.1495 128.75 27.3925 129.088 27.7303C129.439 28.0682 129.696 28.5142 129.898 29.0411C130.088 29.5817 130.182 30.2168 130.182 30.9598V32.7842ZM128.304 30.9598C128.304 30.0544 128.142 29.406 127.817 28.9869C127.507 28.5818 127.007 28.3791 126.344 28.3791C125.669 28.3791 125.169 28.5818 124.858 28.9869C124.534 29.406 124.372 30.0544 124.372 30.9598V32.7842C124.372 33.6893 124.534 34.3381 124.858 34.7435C125.169 35.1623 125.669 35.365 126.344 35.365C127.007 35.365 127.507 35.1623 127.817 34.7435C128.142 34.3381 128.304 33.6893 128.304 32.7842V30.9598ZM139.546 36.3516C139.546 36.5001 139.492 36.6352 139.398 36.7297C139.29 36.8379 139.155 36.8918 139.006 36.8918H137.641C137.479 36.8918 137.33 36.8649 137.195 36.8243C137.046 36.784 136.925 36.6488 136.817 36.4055L133.817 29.8247C133.776 29.7571 133.736 29.7169 133.696 29.7169C133.655 29.7169 133.628 29.7571 133.628 29.8247V36.6216C133.628 36.6891 133.601 36.7567 133.56 36.811C133.506 36.8649 133.439 36.8918 133.371 36.8918H132.223C132.155 36.8918 132.087 36.8649 132.033 36.811C131.979 36.7567 131.952 36.6891 131.952 36.6216V27.3925C131.952 27.244 132.006 27.1088 132.114 27.0007C132.209 26.9061 132.344 26.8522 132.493 26.8522H133.952C134.101 26.8522 134.209 26.8792 134.303 26.9331C134.385 26.987 134.465 27.1088 134.547 27.2846L137.695 34.2299C137.722 34.2975 137.763 34.3381 137.803 34.3381C137.844 34.3381 137.871 34.2975 137.871 34.2166V27.1088C137.871 26.9331 137.952 26.8522 138.128 26.8522H139.29C139.465 26.8522 139.546 26.9331 139.546 27.1088V36.3516Z" fill="#5C8EE6"></path>
    </g>
    <defs>
      <clipPath id="clip0_191_1668">
        <rect width="140" height="44" fill="white"></rect>
      </clipPath>
    </defs>
  </symbol>
  <symbol fill="none" xmlns="http://www.w3.org/2000/svg" viewBox="0 0 140 44" id="logo-light">
    <g clip-path="url(#clip0_191_1609)">
      <path fill-rule="evenodd" clip-rule="evenodd" d="M21.9928 4.89351C24.2857 4.89351 26.4733 5.34481 28.4715 6.16361V12.3539V21.8184C28.4715 25.3669 25.5949 28.2436 22.0465 28.2436C20.5375 28.2436 19.15 27.7235 18.0536 26.8527V32.5405C19.2966 33.0038 20.6421 33.2569 22.0465 33.2569C29.0248 33.2569 33.5146 27.7473 33.5146 21.0594V3.25613C30.1638 1.19127 26.2173 0 21.9928 0C9.84658 0 0 9.84658 0 21.9928C0 28.9293 3.21131 35.1156 8.22825 39.1466V32.1397C6.13243 29.3013 4.89351 25.7918 4.89351 21.9928C4.89351 12.5492 12.5492 4.89351 21.9928 4.89351Z" fill="white"></path>
      <path fill-rule="evenodd" clip-rule="evenodd" d="M22.0619 39.1065C19.7688 39.1065 17.5811 38.6552 15.583 37.8364V31.6461V22.1815C15.583 18.6331 18.4597 15.7563 22.0082 15.7563C23.5171 15.7563 24.9044 16.2765 26.0008 17.1473V11.4594C24.7578 10.9962 23.4125 10.7431 22.0082 10.7431C15.0299 10.7431 10.54 16.2527 10.54 22.9406V40.7438C13.8906 42.8087 17.8371 44 22.0619 44C34.2081 44 44.0546 34.1534 44.0546 22.0072C44.0546 15.0707 40.8433 8.88436 35.8264 4.85339V11.8603C37.9222 14.6987 39.1611 18.2082 39.1611 22.0072C39.1611 31.4508 31.5055 39.1065 22.0619 39.1065Z" fill="#5C8EE6"></path>
      <path d="M71.3035 22.5536C71.3035 22.6595 71.2612 22.7443 71.1976 22.8079C71.1339 22.8716 71.028 22.9138 70.9221 22.9138H68.676C68.5701 22.9138 68.4853 22.8716 68.4216 22.8079C68.3582 22.7443 68.2946 22.6595 68.2735 22.5536L67.2985 18.5275H62.4249L61.45 22.5536C61.4289 22.6595 61.3655 22.7443 61.3019 22.8079C61.2382 22.8716 61.1534 22.9138 61.0475 22.9138H58.8014C58.6955 22.9138 58.5896 22.8716 58.5259 22.8079C58.4622 22.7443 58.42 22.6595 58.42 22.5536C58.42 22.5324 58.42 22.5324 58.4411 22.5113C58.4411 22.4902 58.4411 22.4688 58.4411 22.4476L61.9165 9.16164C62.0435 8.67402 62.2342 8.27152 62.4672 7.99603C62.7004 7.72055 62.9759 7.48762 63.2514 7.33916C63.5269 7.19102 63.8023 7.10623 64.099 7.06367C64.3744 7.02144 64.6288 7 64.8617 7C65.095 7 65.349 7.02144 65.6456 7.06367C65.9211 7.10623 66.218 7.19102 66.4935 7.33916C66.769 7.48762 67.0231 7.72055 67.2563 7.99603C67.4892 8.27152 67.6799 8.67402 67.8073 9.16164L71.2824 22.4476C71.2824 22.4688 71.2823 22.4902 71.3035 22.5113C71.3035 22.5324 71.3035 22.5324 71.3035 22.5536ZM65.2009 9.81852C65.1795 9.69117 65.1372 9.60638 65.095 9.54304C65.0524 9.50048 64.9676 9.47936 64.8617 9.47936C64.7558 9.47936 64.671 9.50048 64.6288 9.54304C64.5862 9.60638 64.544 9.69117 64.5226 9.81852L62.997 16.1118H66.7265L65.2009 9.81852Z" fill="white"></path>
      <path d="M81.7927 22.3417C81.7927 22.4902 81.7712 22.5961 81.7079 22.6594C81.6442 22.7231 81.5172 22.7653 81.3687 22.7868C81.2206 22.829 80.9873 22.8716 80.7119 22.8927C80.4153 22.9349 80.0975 22.9775 79.7584 22.9986C79.4192 23.0197 79.0804 23.0408 78.7201 23.0623C78.3598 23.0834 78.0418 23.0834 77.7663 23.0834C77.0672 23.0834 76.4314 23.0197 75.8382 22.9138C75.2447 22.8079 74.7363 22.575 74.2912 22.2569C73.8462 21.9392 73.5073 21.5153 73.253 20.9432C72.9986 20.3711 72.8716 19.6505 72.8716 18.7393V7.59352C72.8716 7.48761 72.9138 7.38139 72.9986 7.29692C73.0834 7.21213 73.1893 7.16958 73.2955 7.16958H75.3932C75.4991 7.16958 75.605 7.21213 75.6898 7.29692C75.7746 7.38139 75.8171 7.48761 75.8171 7.59352V18.7393C75.8171 19.4387 75.9441 19.926 76.1771 20.1804C76.4103 20.4344 76.8554 20.5618 77.4697 20.5618H81.3687C81.4746 20.5618 81.5805 20.604 81.6653 20.6888C81.7501 20.7736 81.7927 20.8795 81.7927 20.9854V22.3417ZM86.7511 22.4902C86.7511 22.5961 86.7085 22.702 86.6237 22.7868C86.5393 22.8716 86.433 22.9138 86.3271 22.9138H84.2295C84.1236 22.9138 84.0177 22.8716 83.9329 22.7868C83.8481 22.702 83.8055 22.5961 83.8055 22.4902V7.57241C83.8055 7.46618 83.8481 7.36027 83.9329 7.27548C84.0177 7.21214 84.1236 7.16958 84.2295 7.16958H86.3271C86.433 7.16958 86.5393 7.21214 86.6237 7.27548C86.7085 7.36027 86.7511 7.46618 86.7511 7.57241V22.4902ZM101.626 22.5535C101.626 22.6594 101.584 22.7442 101.52 22.8079C101.457 22.8716 101.351 22.9138 101.245 22.9138H98.9988C98.8929 22.9138 98.8081 22.8716 98.7444 22.8079C98.6811 22.7442 98.6174 22.6594 98.5963 22.5535L97.6214 18.5275H92.7478L91.7732 22.5535C91.7517 22.6594 91.6884 22.7442 91.6247 22.8079C91.561 22.8716 91.4766 22.9138 91.3703 22.9138H89.1242C89.0183 22.9138 88.9124 22.8716 88.8487 22.8079C88.7854 22.7442 88.7428 22.6594 88.7428 22.5535C88.7428 22.5324 88.7428 22.5324 88.7639 22.5113C88.7639 22.4902 88.7639 22.4687 88.7639 22.4476L92.2393 9.16164C92.3664 8.67402 92.5571 8.27152 92.7903 7.99603C93.0232 7.72055 93.2987 7.48762 93.5742 7.33916C93.8497 7.19102 94.1252 7.10623 94.4218 7.06367C94.6973 7.02144 94.9516 7 95.1846 7C95.4178 7 95.6719 7.02144 95.9688 7.06367C96.2443 7.10623 96.5409 7.19102 96.8164 7.33916C97.0918 7.48762 97.3459 7.72055 97.5791 7.99603C97.8121 8.27152 98.0031 8.67402 98.1301 9.16164L101.605 22.4476C101.605 22.4687 101.605 22.4902 101.626 22.5113C101.626 22.5324 101.626 22.5324 101.626 22.5535ZM95.5237 9.81851C95.5026 9.69117 95.46 9.60638 95.4178 9.54303C95.3753 9.50047 95.2905 9.47936 95.1846 9.47936C95.0787 9.47936 94.9939 9.50047 94.9516 9.54303C94.9091 9.60638 94.8668 9.69117 94.8457 9.81851L93.3198 16.1118H97.0493L95.5237 9.81851ZM115.527 22.0662C115.527 22.2995 115.442 22.5113 115.294 22.6594C115.124 22.829 114.913 22.9138 114.679 22.9138H112.539C112.285 22.9138 112.052 22.8716 111.84 22.8079C111.607 22.7442 111.416 22.5324 111.247 22.151L106.542 11.8314C106.479 11.7255 106.415 11.6618 106.352 11.6618C106.288 11.6618 106.246 11.7255 106.246 11.8314V22.4902C106.246 22.5961 106.203 22.702 106.14 22.7868C106.055 22.8716 105.949 22.9138 105.843 22.9138H104.042C103.936 22.9138 103.83 22.8716 103.745 22.7868C103.661 22.702 103.618 22.5961 103.618 22.4902V8.01714C103.618 7.78422 103.703 7.57241 103.872 7.40283C104.021 7.25437 104.233 7.16958 104.466 7.16958H106.754C106.988 7.16958 107.157 7.21213 107.305 7.29692C107.433 7.38139 107.56 7.57241 107.687 7.84757L112.624 18.7393C112.666 18.8452 112.73 18.9089 112.794 18.9089C112.857 18.9089 112.899 18.8452 112.899 18.7182V7.57241C112.899 7.29692 113.027 7.16958 113.302 7.16958H115.124C115.4 7.16958 115.527 7.29692 115.527 7.57241V22.0662ZM128.072 22.2569C128.072 22.4054 128.029 22.5113 127.945 22.575C127.86 22.6383 127.754 22.702 127.605 22.7442C127.521 22.7653 127.372 22.8079 127.181 22.829C126.97 22.8716 126.715 22.9138 126.419 22.9564C126.122 22.9775 125.783 23.0197 125.423 23.0408C125.063 23.0623 124.66 23.0834 124.257 23.0834C123.622 23.0834 122.944 22.9986 122.244 22.8079C121.545 22.6172 120.888 22.278 120.316 21.7907C119.723 21.3034 119.256 20.6466 118.854 19.8201C118.472 18.9937 118.282 17.9128 118.282 16.5991V13.4843C118.282 12.1494 118.472 11.0686 118.854 10.221C119.256 9.39457 119.723 8.7377 120.316 8.2504C120.888 7.76311 121.545 7.44506 122.244 7.25436C122.944 7.08478 123.622 7 124.257 7C124.66 7 125.063 7.02144 125.423 7.04255C125.783 7.06367 126.122 7.10623 126.419 7.12734C126.715 7.16958 126.97 7.21213 127.181 7.25436C127.372 7.29692 127.521 7.31804 127.605 7.33916C127.754 7.38139 127.86 7.42394 127.945 7.48761C128.029 7.55096 128.072 7.67831 128.072 7.82645V9.24643C128.072 9.37345 128.05 9.47936 127.987 9.56415C127.923 9.64894 127.796 9.69117 127.648 9.69117H127.605C127.415 9.67005 127.203 9.64894 126.948 9.62782C126.673 9.60638 126.398 9.60638 126.101 9.58526C125.804 9.56415 125.507 9.56415 125.19 9.54303C124.872 9.52191 124.575 9.52192 124.3 9.52192C123.855 9.52192 123.431 9.58527 123.071 9.71262C122.689 9.86075 122.371 10.0726 122.096 10.3695C121.821 10.6872 121.609 11.0897 121.46 11.5984C121.312 12.1069 121.227 12.7426 121.227 13.4843V16.5991C121.227 17.3408 121.312 17.9554 121.46 18.4638C121.609 18.9725 121.821 19.3751 122.096 19.6931C122.371 20.0108 122.689 20.2226 123.071 20.35C123.431 20.4981 123.855 20.5618 124.3 20.5618C124.575 20.5618 124.872 20.5618 125.19 20.5407C125.507 20.5192 125.804 20.5192 126.101 20.4981C126.398 20.477 126.673 20.4559 126.948 20.4344C127.203 20.4133 127.415 20.4133 127.605 20.3922H127.648C127.796 20.3922 127.923 20.4344 127.987 20.5192C128.05 20.604 128.072 20.7099 128.072 20.8373V22.2569ZM140.002 22.3417C140.002 22.4902 139.98 22.5961 139.917 22.6594C139.853 22.7231 139.726 22.7653 139.578 22.7868C139.408 22.8079 139.218 22.8501 139.027 22.8716C138.815 22.9138 138.56 22.9563 138.264 22.9775C137.946 22.9986 137.586 23.0408 137.162 23.0623C136.717 23.0834 136.187 23.0834 135.552 23.0834C134.852 23.0834 134.217 23.0197 133.623 22.9138C133.03 22.8079 132.5 22.575 132.076 22.2569C131.631 21.9392 131.271 21.5153 131.017 20.9432C130.763 20.3711 130.635 19.6505 130.635 18.7393V11.3441C130.635 10.4328 130.763 9.71261 131.017 9.1402C131.271 8.56812 131.631 8.12305 132.076 7.80533C132.5 7.48761 133.03 7.27548 133.623 7.16958C134.217 7.06367 134.852 7 135.552 7C136.187 7 136.717 7 137.162 7.02144C137.586 7.04255 137.946 7.08478 138.264 7.10622C138.56 7.12734 138.815 7.16958 139.027 7.19102C139.218 7.23325 139.408 7.27548 139.578 7.29692C139.726 7.31804 139.853 7.36027 139.917 7.42394C139.98 7.48761 140.002 7.59352 140.002 7.74166V9.09797C140.002 9.20387 139.959 9.30978 139.874 9.39457C139.79 9.47936 139.684 9.52192 139.578 9.52192H135.255C134.64 9.52192 134.196 9.64894 133.962 9.90331C133.708 10.1574 133.581 10.6447 133.581 11.3441V13.6327H139.324C139.429 13.6327 139.535 13.675 139.62 13.7598C139.705 13.8446 139.747 13.9505 139.747 14.0564V15.5819C139.747 15.6882 139.705 15.7941 139.62 15.8789C139.535 15.9636 139.429 16.0059 139.324 16.0059H133.581V18.7393C133.581 19.4387 133.708 19.926 133.962 20.1804C134.196 20.4344 134.64 20.5618 135.255 20.5618H139.578C139.684 20.5618 139.79 20.604 139.874 20.6888C139.959 20.7736 140.002 20.8795 140.002 20.9854V22.3417Z" fill="white"></path>
      <path d="M65.8759 29.9868C65.8759 30.5816 65.7677 31.0816 65.565 31.4867C65.3489 31.8921 65.0653 32.2167 64.7002 32.4597C64.349 32.7167 63.9303 32.8921 63.4706 32.9866C62.9979 33.0948 62.4979 33.149 61.9707 33.149C61.7953 33.149 61.5925 33.1354 61.3492 33.1218C61.1195 33.1084 60.9168 33.1084 60.768 33.0948V36.6215C60.768 36.6891 60.7411 36.7567 60.7005 36.8109C60.6465 36.8648 60.579 36.8918 60.5114 36.8918H59.1603C59.0927 36.8918 59.0251 36.8648 58.9709 36.8109C58.917 36.7567 58.89 36.6891 58.89 36.6215V27.3249C58.89 27.1897 58.9306 27.0952 59.0115 27.0276C59.0791 26.9737 59.1873 26.9331 59.3224 26.9198C59.6736 26.8655 60.079 26.8249 60.5384 26.7846C60.998 26.7573 61.4844 26.744 61.9843 26.744C62.4979 26.744 62.9979 26.7979 63.4706 26.8925C63.9303 26.987 64.349 27.1628 64.7002 27.4061C65.0653 27.6494 65.3489 27.9736 65.565 28.3654C65.7677 28.7709 65.8759 29.2708 65.8759 29.8653V29.9868ZM63.9978 29.8517C63.9978 29.2845 63.8354 28.879 63.4979 28.6494C63.16 28.406 62.6464 28.2845 61.9707 28.2845C61.9031 28.2845 61.8086 28.2845 61.7004 28.2845C61.5789 28.2978 61.4707 28.2978 61.3492 28.2978C61.2277 28.3115 61.1195 28.3115 61.025 28.3115C60.9168 28.3248 60.8356 28.3248 60.768 28.3385V31.5679C60.8223 31.5679 60.9032 31.5679 61.025 31.5679C61.1332 31.5816 61.2547 31.5816 61.3762 31.5816C61.498 31.5949 61.6059 31.5949 61.7277 31.5949C61.8355 31.6085 61.9168 31.6085 61.9707 31.6085C62.7003 31.6085 63.2276 31.4734 63.5382 31.2031C63.8491 30.9328 63.9978 30.5274 63.9978 29.9735V29.8517ZM74.6456 36.7297C74.6456 36.8379 74.5917 36.8918 74.4835 36.8918H72.8348C72.7672 36.8918 72.7133 36.8648 72.6727 36.8109C72.6324 36.7567 72.6051 36.6891 72.5648 36.6215L70.6189 33.0272H70.4298C70.2541 33.0272 70.0377 33.0139 69.808 33.0003C69.5784 32.9866 69.3756 32.9866 69.2272 32.9733V36.6215C69.2272 36.6891 69.1999 36.7567 69.1596 36.8109C69.1054 36.8648 69.0378 36.8918 68.9702 36.8918H67.6191C67.5515 36.8918 67.484 36.8648 67.43 36.8109C67.3758 36.7567 67.3488 36.6891 67.3488 36.6215V27.3249C67.3488 27.1897 67.3894 27.0952 67.4703 27.0276C67.5379 26.9737 67.6461 26.9331 67.7812 26.9198C68.1324 26.8655 68.5378 26.8249 68.9975 26.7846C69.4569 26.7573 69.9432 26.744 70.4431 26.744C70.9568 26.744 71.4567 26.7979 71.9297 26.8925C72.3891 27.0007 72.8078 27.1764 73.1593 27.4061C73.5242 27.6358 73.8078 27.9467 74.0241 28.3385C74.2268 28.7302 74.3347 29.2169 74.3347 29.7977V29.9192C74.3347 30.6356 74.1726 31.2301 73.8347 31.6761C73.5105 32.1218 73.0645 32.4597 72.4973 32.676L74.6186 36.6215C74.6319 36.6488 74.6456 36.6891 74.6456 36.7297ZM72.4567 29.7977C72.4567 29.2845 72.2945 28.9196 71.9567 28.6896C71.6188 28.46 71.1052 28.3521 70.4298 28.3521C70.3623 28.3521 70.2674 28.3521 70.1595 28.3521C70.0377 28.3654 69.9299 28.3654 69.808 28.3654C69.6865 28.3791 69.5784 28.3791 69.4838 28.3791C69.3756 28.3924 69.2948 28.3924 69.2272 28.406V31.4464C69.2811 31.4464 69.3623 31.4464 69.4838 31.4464C69.592 31.4597 69.7135 31.4598 69.835 31.4598C69.9568 31.4734 70.0647 31.4734 70.1865 31.4734C70.2947 31.4867 70.3756 31.4867 70.4298 31.4867C71.1322 31.4867 71.6458 31.3789 71.97 31.1492C72.2945 30.9195 72.4567 30.5141 72.4567 29.9192V29.7977Z" fill="#5C8EE6"></path>
      <path d="M83.3208 32.7842C83.3208 33.5272 83.2259 34.176 83.0368 34.7029C82.8341 35.2298 82.5775 35.6622 82.226 36.0001C81.8884 36.3379 81.483 36.5946 81.01 36.7567C80.5507 36.9188 80.037 37 79.4831 37C78.9156 37 78.402 36.9188 77.9426 36.7567C77.4696 36.5946 77.0642 36.3379 76.7267 36.0001C76.3888 35.6622 76.1185 35.2298 75.9291 34.7029C75.7264 34.176 75.6319 33.5272 75.6319 32.7842V30.9598C75.6319 30.2168 75.7264 29.5817 75.9291 29.0411C76.1185 28.5142 76.3888 28.0682 76.7267 27.7303C77.0642 27.3925 77.4696 27.1495 77.9426 26.987C78.402 26.8249 78.9156 26.744 79.4831 26.744C80.037 26.744 80.5507 26.8249 81.01 26.987C81.483 27.1495 81.8884 27.3925 82.226 27.7303C82.5775 28.0682 82.8341 28.5142 83.0368 29.0411C83.2259 29.5817 83.3208 30.2168 83.3208 30.9598V32.7842ZM81.4424 30.9598C81.4424 30.0544 81.2803 29.406 80.9561 28.9869C80.6452 28.5818 80.1452 28.3791 79.4831 28.3791C78.8074 28.3791 78.3075 28.5818 77.9966 28.9869C77.6724 29.406 77.5102 30.0544 77.5102 30.9598V32.7842C77.5102 33.6893 77.6724 34.3381 77.9966 34.7435C78.3075 35.1623 78.8074 35.365 79.4831 35.365C80.1452 35.365 80.6452 35.1623 80.9561 34.7435C81.2803 34.3381 81.4424 33.6893 81.4424 32.7842V30.9598ZM92.3604 32.8651C92.3604 34.2029 91.9956 35.2298 91.2523 35.9325C90.5227 36.6488 89.4688 37 88.1177 37C87.8607 37 87.6177 37 87.3475 36.9864C87.0772 36.9731 86.8205 36.9594 86.5772 36.9461C86.3202 36.9324 86.1042 36.9055 85.9015 36.8918C85.6988 36.8785 85.5367 36.8512 85.4421 36.8379C85.3206 36.8243 85.2394 36.784 85.1855 36.7164C85.1179 36.6488 85.0906 36.554 85.0906 36.4188V27.3249C85.0906 27.1897 85.1179 27.0952 85.1855 27.0276C85.2394 26.9601 85.3206 26.9198 85.4421 26.9061C85.5367 26.8925 85.6988 26.8655 85.9015 26.8522C86.1042 26.8386 86.3202 26.8116 86.5772 26.798C86.8205 26.7846 87.0772 26.771 87.3475 26.7573C87.6177 26.744 87.8607 26.744 88.1177 26.744C89.4688 26.744 90.5227 27.0952 91.2523 27.7979C91.9956 28.5142 92.3604 29.5411 92.3604 30.8789V32.8651ZM90.4824 30.8789C90.4824 30.3789 90.4281 29.9599 90.3066 29.6356C90.1851 29.2978 90.0094 29.0411 89.8067 28.8384C89.5903 28.6494 89.3337 28.5142 89.0501 28.433C88.7528 28.3654 88.4419 28.3248 88.1041 28.3248C87.8474 28.3248 87.6311 28.3248 87.4553 28.3385C87.2799 28.3521 87.1178 28.3521 86.969 28.3654V35.3919C87.1178 35.4056 87.2799 35.4056 87.4553 35.4189C87.6311 35.4325 87.8474 35.4325 88.1041 35.4325C88.4419 35.4325 88.7528 35.3919 89.0501 35.3111C89.3337 35.2435 89.5903 35.1083 89.8067 34.9056C90.0094 34.7165 90.1851 34.4596 90.3066 34.1217C90.4281 33.7975 90.4824 33.3787 90.4824 32.8788V30.8789ZM101.468 33.176C101.468 33.892 101.373 34.5002 101.198 34.9865C101.009 35.4732 100.752 35.8649 100.427 36.1622C100.09 36.4594 99.6978 36.6758 99.2518 36.7973C98.7924 36.9325 98.2925 37 97.7519 37C97.2116 37 96.7117 36.9325 96.2656 36.7973C95.8063 36.6758 95.4145 36.4594 95.0899 36.1622C94.7521 35.8649 94.4954 35.4732 94.3197 34.9865C94.1306 34.5002 94.0361 33.892 94.0361 33.176V27.1088C94.0361 27.0413 94.063 26.9737 94.1173 26.9198C94.1712 26.8792 94.2388 26.8522 94.3064 26.8522H95.6442C95.7117 26.8522 95.7793 26.8792 95.8332 26.9198C95.8872 26.9737 95.9144 27.0413 95.9144 27.1088V33.1894C95.9144 33.5678 95.9414 33.9057 95.9953 34.1893C96.0496 34.4732 96.1441 34.7165 96.2926 34.9056C96.4277 35.0947 96.6168 35.2298 96.8468 35.3244C97.0765 35.4189 97.3871 35.4595 97.7519 35.4595C98.117 35.4595 98.4143 35.4189 98.6573 35.3244C98.887 35.2298 99.0764 35.0947 99.2248 34.9056C99.36 34.7165 99.4545 34.4732 99.5087 34.1893C99.5627 33.9057 99.5896 33.5678 99.5896 33.1894V27.1088C99.5896 27.0413 99.6169 26.9737 99.6709 26.9198C99.7248 26.8792 99.7924 26.8522 99.8599 26.8522H101.198C101.265 26.8522 101.333 26.8792 101.387 26.9198C101.441 26.9737 101.468 27.0413 101.468 27.1088V33.176ZM109.4 36.4731C109.4 36.5676 109.373 36.6352 109.319 36.6758C109.265 36.7164 109.197 36.7567 109.103 36.784C109.048 36.7973 108.954 36.8243 108.832 36.8379C108.697 36.8649 108.535 36.8918 108.346 36.9188C108.157 36.9325 107.941 36.9594 107.711 36.9731C107.481 36.9864 107.224 37 106.968 37C106.562 37 106.13 36.9461 105.684 36.8243C105.238 36.7028 104.819 36.4864 104.454 36.1758C104.076 35.8649 103.779 35.4462 103.522 34.9189C103.279 34.392 103.157 33.703 103.157 32.8651V30.8789C103.157 30.0274 103.279 29.3384 103.522 28.7978C103.779 28.2709 104.076 27.8521 104.454 27.5412C104.819 27.2303 105.238 27.0276 105.684 26.9061C106.13 26.798 106.562 26.744 106.968 26.744C107.224 26.744 107.481 26.7573 107.711 26.771C107.941 26.7846 108.157 26.8116 108.346 26.8249C108.535 26.8522 108.697 26.8792 108.832 26.9061C108.954 26.9331 109.048 26.9467 109.103 26.9601C109.197 26.987 109.265 27.0143 109.319 27.0546C109.373 27.0952 109.4 27.1764 109.4 27.271V28.1764C109.4 28.2572 109.386 28.3248 109.346 28.3791C109.305 28.433 109.224 28.46 109.13 28.46H109.103C108.981 28.4466 108.846 28.433 108.684 28.4194C108.508 28.406 108.332 28.406 108.143 28.3924C107.954 28.3791 107.765 28.3791 107.562 28.3654C107.359 28.3521 107.17 28.3521 106.995 28.3521C106.711 28.3521 106.441 28.3924 106.211 28.4736C105.968 28.5681 105.765 28.7033 105.589 28.8924C105.413 29.0951 105.278 29.352 105.184 29.6763C105.089 30.0005 105.035 30.4059 105.035 30.8789V32.8651C105.035 33.3381 105.089 33.7299 105.184 34.0541C105.278 34.3787 105.413 34.6353 105.589 34.838C105.765 35.0408 105.968 35.1759 106.211 35.2568C106.441 35.3513 106.711 35.3919 106.995 35.3919C107.17 35.3919 107.359 35.3919 107.562 35.3786C107.765 35.365 107.954 35.365 108.143 35.3513C108.332 35.338 108.508 35.3244 108.684 35.3111C108.846 35.2974 108.981 35.2974 109.103 35.2838H109.13C109.224 35.2838 109.305 35.311 109.346 35.365C109.386 35.4189 109.4 35.4865 109.4 35.5677V36.4731ZM117.508 28.1764C117.508 28.2439 117.48 28.3115 117.426 28.3521C117.372 28.3924 117.305 28.4194 117.237 28.4194H114.873V36.6216C114.873 36.6891 114.845 36.7567 114.791 36.811C114.737 36.8649 114.67 36.8918 114.602 36.8918H113.264C113.197 36.8918 113.129 36.8649 113.075 36.811C113.021 36.7567 112.994 36.6891 112.994 36.6216V28.4194H110.63C110.562 28.4194 110.494 28.3924 110.44 28.3521C110.386 28.3115 110.359 28.2439 110.359 28.1764V27.1088C110.359 27.0413 110.386 26.9737 110.44 26.9198C110.494 26.8792 110.562 26.8522 110.63 26.8522H117.237C117.305 26.8522 117.372 26.8792 117.426 26.9198C117.48 26.9737 117.508 27.0413 117.508 27.1088V28.1764ZM120.737 36.6216C120.737 36.6891 120.71 36.7567 120.656 36.811C120.602 36.8649 120.534 36.8918 120.467 36.8918H119.129C119.061 36.8918 118.994 36.8649 118.94 36.811C118.886 36.7567 118.859 36.6891 118.859 36.6216V27.1088C118.859 27.0413 118.886 26.9737 118.94 26.9198C118.994 26.8792 119.061 26.8522 119.129 26.8522H120.467C120.534 26.8522 120.602 26.8792 120.656 26.9198C120.71 26.9737 120.737 27.0413 120.737 27.1088V36.6216ZM130.182 32.7842C130.182 33.5272 130.088 34.176 129.898 34.7029C129.696 35.2298 129.439 35.6622 129.088 36.0001C128.75 36.3379 128.344 36.5946 127.871 36.7567C127.412 36.9188 126.899 37 126.344 37C125.777 37 125.264 36.9188 124.804 36.7567C124.331 36.5946 123.926 36.3379 123.588 36.0001C123.25 35.6622 122.98 35.2298 122.791 34.7029C122.588 34.176 122.494 33.5272 122.494 32.7842V30.9598C122.494 30.2168 122.588 29.5817 122.791 29.0411C122.98 28.5142 123.25 28.0682 123.588 27.7303C123.926 27.3925 124.331 27.1495 124.804 26.987C125.264 26.8249 125.777 26.744 126.344 26.744C126.899 26.744 127.412 26.8249 127.871 26.987C128.344 27.1495 128.75 27.3925 129.088 27.7303C129.439 28.0682 129.696 28.5142 129.898 29.0411C130.088 29.5817 130.182 30.2168 130.182 30.9598V32.7842ZM128.304 30.9598C128.304 30.0544 128.142 29.406 127.817 28.9869C127.507 28.5818 127.007 28.3791 126.344 28.3791C125.669 28.3791 125.169 28.5818 124.858 28.9869C124.534 29.406 124.372 30.0544 124.372 30.9598V32.7842C124.372 33.6893 124.534 34.3381 124.858 34.7435C125.169 35.1623 125.669 35.365 126.344 35.365C127.007 35.365 127.507 35.1623 127.817 34.7435C128.142 34.3381 128.304 33.6893 128.304 32.7842V30.9598ZM139.546 36.3516C139.546 36.5001 139.492 36.6352 139.398 36.7297C139.29 36.8379 139.155 36.8918 139.006 36.8918H137.641C137.479 36.8918 137.33 36.8649 137.195 36.8243C137.046 36.784 136.925 36.6488 136.817 36.4055L133.817 29.8247C133.776 29.7571 133.736 29.7169 133.696 29.7169C133.655 29.7169 133.628 29.7571 133.628 29.8247V36.6216C133.628 36.6891 133.601 36.7567 133.56 36.811C133.506 36.8649 133.439 36.8918 133.371 36.8918H132.223C132.155 36.8918 132.087 36.8649 132.033 36.811C131.979 36.7567 131.952 36.6891 131.952 36.6216V27.3925C131.952 27.244 132.006 27.1088 132.114 27.0007C132.209 26.9061 132.344 26.8522 132.493 26.8522H133.952C134.101 26.8522 134.209 26.8792 134.303 26.9331C134.385 26.987 134.465 27.1088 134.547 27.2846L137.695 34.2299C137.722 34.2975 137.763 34.3381 137.803 34.3381C137.844 34.3381 137.871 34.2975 137.871 34.2166V27.1088C137.871 26.9331 137.952 26.8522 138.128 26.8522H139.29C139.465 26.8522 139.546 26.9331 139.546 27.1088V36.3516Z" fill="#5C8EE6"></path>
    </g>
    <defs>
      <clipPath id="clip0_191_1609">
        <rect width="140" height="44" fill="white"></rect>
      </clipPath>
    </defs>
  </symbol>
  <symbol xmlns="http://www.w3.org/2000/svg" viewBox="0 0 24 24" id="phone">
    <path d="M19.9688 16.0822L19.2188 19.2384C19.125 19.7072 18.75 20.0197 18.2812 20.0197C10.4062 19.9884 4 13.5822 4 5.70718C4 5.23843 4.28125 4.86343 4.75 4.76968L7.90625 4.01968C8.34375 3.92593 8.8125 4.17593 9 4.58218L10.4688 7.98843C10.625 8.39468 10.5312 8.86343 10.1875 9.11343L8.5 10.4884C9.5625 12.6447 11.3125 14.3947 13.5 15.4572L14.875 13.7697C15.125 13.4572 15.5938 13.3322 16 13.4884L19.4062 14.9572C19.8125 15.1759 20.0625 15.6447 19.9688 16.0822Z"></path>
  </symbol>
  <symbol fill="none" xmlns="http://www.w3.org/2000/svg" viewBox="0 0 32 25" id="speed">
    <path d="M9.625 7.875C8.64062 7.875 7.875 8.69531 7.875 9.625C7.875 10.6094 8.64062 11.375 9.625 11.375C10.5547 11.375 11.375 10.6094 11.375 9.625C11.375 8.69531 10.5547 7.875 9.625 7.875ZM15.75 0C7.05469 0 0 7.05469 0 15.75C0 18.6484 0.765625 21.3828 2.13281 23.6797C2.40625 24.2266 3.00781 24.5547 3.60938 24.5547H27.8359C28.4375 24.5547 29.0391 24.2266 29.3672 23.6797C30.6797 21.3828 31.5 18.6484 31.5 15.75C31.5 7.05469 24.4453 0 15.75 0ZM15.75 21.875C14.4922 21.875 13.5625 20.9453 13.5625 19.6875C13.5625 18.4844 14.4922 17.5 15.75 17.5C16.9531 17.5 17.9375 18.4844 17.9375 19.6875C17.9375 20.9453 16.9531 21.875 15.75 21.875ZM27.3438 21.875H20.0156C20.3438 21.2188 20.5625 20.5078 20.5625 19.6875C20.5625 19.3594 20.5078 19.0312 20.3984 18.7031L25.4297 16.5703C26.0859 16.2422 26.4141 15.4766 26.1406 14.8203C25.8125 14.1641 25.0469 13.8359 24.3906 14.1094L19.1953 16.3516C18.3203 15.4766 17.0625 14.875 15.75 14.875C13.0703 14.875 10.9375 17.0625 10.9375 19.6875C10.9375 20.5078 11.1016 21.2188 11.4844 21.875H4.10156C3.11719 20.0156 2.625 17.9375 2.625 15.75C2.625 8.53125 8.47656 2.625 15.75 2.625C22.9688 2.625 28.875 8.53125 28.875 15.75C28.875 17.9375 28.3281 20.0156 27.3438 21.875ZM7 14C6.01562 14 5.25 14.8203 5.25 15.75C5.25 16.7344 6.01562 17.5 7 17.5C7.92969 17.5 8.75 16.7344 8.75 15.75C8.75 14.8203 7.92969 14 7 14ZM15.75 5.25C14.7656 5.25 14 6.07031 14 7C14 7.98438 14.7656 8.75 15.75 8.75C16.6797 8.75 17.5 7.98438 17.5 7C17.5 6.07031 16.6797 5.25 15.75 5.25ZM21.875 7.875C20.8906 7.875 20.125 8.69531 20.125 9.625C20.125 10.6094 20.8906 11.375 21.875 11.375C22.8047 11.375 23.625 10.6094 23.625 9.625C23.625 8.69531 22.8047 7.875 21.875 7.875Z" fill="#5C8EE6"></path>
  </symbol>
  <symbol fill="none" xmlns="http://www.w3.org/2000/svg" viewBox="0 0 36 36" id="time">
    <path d="M20.125 5.75H20.3438C20.6719 5.75 21 5.47656 21 5.09375V4.65625C21 4.32812 20.6719 4 20.3438 4H0.65625C0.273438 4 0 4.32812 0 4.65625V5.09375C0 5.47656 0.273438 5.75 0.65625 5.75H0.875C0.875 10.7812 3.28125 16.3594 7.92969 18C3.22656 19.6953 0.875 25.2734 0.875 30.25H0.65625C0.273438 30.25 0 30.5781 0 30.9062V31.3438C0 31.7266 0.273438 32 0.65625 32H20.3438C20.6719 32 21 31.7266 21 31.3438V30.9062C21 30.5781 20.6719 30.25 20.3438 30.25H20.125C20.125 25.2734 17.6641 19.6953 13.0156 18C17.7188 16.3594 20.125 10.7812 20.125 5.75ZM2.625 5.75H18.375C18.375 11.8203 14.8203 16.6875 10.5 16.6875C6.125 16.6875 2.625 11.8203 2.625 5.75ZM18.375 30.25H2.625C2.625 24.2344 6.125 19.3125 10.5 19.3125C14.8203 19.3125 18.375 24.2344 18.375 30.25ZM14.7109 12.0391C15.0391 11.6562 14.7109 11 14.1641 11H6.78125C6.23438 11 5.90625 11.6562 6.23438 12.0391C6.34375 12.2031 6.45312 12.3672 6.61719 12.5312C6.72656 12.6953 6.89062 12.75 7.10938 12.75H13.8359C14.0547 12.75 14.2188 12.6953 14.3281 12.5312C14.4922 12.3672 14.6016 12.2031 14.7109 12.0391ZM5.35938 26.75C5.03125 26.75 4.8125 26.9688 4.70312 27.2422C4.70312 27.4062 4.64844 27.5703 4.59375 27.7344C4.53906 28.1172 4.8125 28.5 5.25 28.5H15.6953C16.1328 28.5 16.4062 28.1172 16.3516 27.7344C16.2969 27.5703 16.2422 27.4062 16.2422 27.2422C16.1328 26.9688 15.9141 26.75 15.5859 26.75H5.35938Z" fill="#5C8EE6"></path>
  </symbol>
  <symbol fill="none" xmlns="http://www.w3.org/2000/svg" viewBox="0 0 24 24" id="inst">
    <path d="M8.44444 4C5.99378 4 4 5.99378 4 8.44444V15.5556C4 18.0062 5.99378 20 8.44444 20H15.5556C18.0062 20 20 18.0062 20 15.5556V8.44444C20 5.99378 18.0062 4 15.5556 4H8.44444ZM8.44444 5.77778H15.5556C17.0258 5.77778 18.2222 6.97422 18.2222 8.44444V15.5556C18.2222 17.0258 17.0258 18.2222 15.5556 18.2222H8.44444C6.97422 18.2222 5.77778 17.0258 5.77778 15.5556V8.44444C5.77778 6.97422 6.97422 5.77778 8.44444 5.77778ZM16.4444 6.66667C16.2087 6.66667 15.9826 6.76032 15.8159 6.92702C15.6492 7.09372 15.5556 7.31981 15.5556 7.55556C15.5556 7.7913 15.6492 8.0174 15.8159 8.18409C15.9826 8.35079 16.2087 8.44444 16.4444 8.44444C16.6802 8.44444 16.9063 8.35079 17.073 8.18409C17.2397 8.0174 17.3333 7.7913 17.3333 7.55556C17.3333 7.31981 17.2397 7.09372 17.073 6.92702C16.9063 6.76032 16.6802 6.66667 16.4444 6.66667ZM12 7.55556C9.54933 7.55556 7.55556 9.54933 7.55556 12C7.55556 14.4507 9.54933 16.4444 12 16.4444C14.4507 16.4444 16.4444 14.4507 16.4444 12C16.4444 9.54933 14.4507 7.55556 12 7.55556ZM12 9.33333C13.4702 9.33333 14.6667 10.5298 14.6667 12C14.6667 13.4702 13.4702 14.6667 12 14.6667C10.5298 14.6667 9.33333 13.4702 9.33333 12C9.33333 10.5298 10.5298 9.33333 12 9.33333Z" fill="#5C8EE6"></path>
  </symbol>
  <symbol fill="none" xmlns="http://www.w3.org/2000/svg" viewBox="0 0 24 24" id="mail">
    <path d="M4.3125 9.96875C5.03125 10.5312 5.9375 11.2188 9.125 13.5312C9.75 14 10.9062 15.0312 12 15.0312C13.125 15.0312 14.25 14 14.9062 13.5312C18.0938 11.2188 19 10.5312 19.7188 9.96875C19.8438 9.875 20 9.96875 20 10.125V16.5C20 17.3438 19.3438 18 18.5 18H5.5C4.6875 18 4 17.3438 4 16.5V10.125C4 9.96875 4.1875 9.875 4.3125 9.96875ZM12 14C11.2812 14.0312 10.25 13.0938 9.71875 12.7188C5.5625 9.71875 5.25 9.4375 4.3125 8.6875C4.125 8.5625 4 8.34375 4 8.09375V7.5C4 6.6875 4.6875 6 5.5 6H18.5C19.3438 6 20 6.6875 20 7.5V8.09375C20 8.34375 19.9062 8.5625 19.7188 8.6875C18.7812 9.4375 18.4688 9.71875 14.3125 12.7188C13.7812 13.0938 12.75 14.0312 12 14Z" fill="#5C8EE6"></path>
  </symbol>
  <symbol fill="none" xmlns="http://www.w3.org/2000/svg" viewBox="0 0 24 24" id="mark">
    <path d="M12.625 19.6875C12.3438 20.125 11.6875 20.125 11.4062 19.6875C6.84375 13.125 6 12.4375 6 10C6 6.6875 8.6875 4 12 4C15.3438 4 18 6.6875 18 10C18 12.4375 17.1875 13.125 12.625 19.6875ZM12 12.5C13.4062 12.5 14.5 11.4062 14.5 10C14.5 8.625 13.4062 7.5 12 7.5C10.625 7.5 9.5 8.625 9.5 10C9.5 11.4062 10.625 12.5 12 12.5Z" fill="#5C8EE6"></path>
  </symbol>
  <symbol fill="none" xmlns="http://www.w3.org/2000/svg" viewBox="0 0 24 24" id="vk">
    <path d="M21.4439 16.7569C20.6455 15.32 18.5889 13.5935 17.7398 12.8422C17.5074 12.6365 17.4826 12.2806 17.694 12.0531C19.3144 10.3119 20.6104 8.31123 21.0565 7.1023C21.2533 6.56826 20.8459 6.004 20.2719 6.004H18.6044C18.0548 6.004 17.7331 6.20127 17.5799 6.51538C16.2332 9.27491 15.078 10.4692 14.2694 11.1672C13.8167 11.5581 13.1107 11.2343 13.1107 10.6393C13.1107 9.49306 13.1107 8.01133 13.1107 6.96057C13.1107 6.45096 12.6939 6.03865 12.1799 6.03865L9.13379 6.004C8.75036 6.004 8.53132 6.43808 8.76147 6.74242L9.26441 7.4644C9.45368 7.71454 9.55587 8.01888 9.55587 8.33122L9.55321 11.5826C9.55321 12.1482 8.86766 12.4245 8.46068 12.0282C7.08381 10.6873 5.88909 7.94913 5.45901 6.63979C5.33461 6.2608 4.97962 6.00489 4.57709 6.004L2.93452 6C2.31828 6 1.86777 6.58425 2.03527 7.1725C3.5361 12.4405 6.61552 17.4522 12.1035 17.9956C12.6442 18.0489 13.1107 17.6135 13.1107 17.0745V15.3658C13.1107 14.8757 13.495 14.4545 13.9891 14.4421C14.0064 14.4416 14.0237 14.4416 14.041 14.4416C15.4926 14.4416 17.1182 16.5543 17.6869 17.5424C17.8504 17.8267 18.1561 18 18.4867 18H20.6962C21.3408 18 21.7545 17.3162 21.4439 16.7569Z" fill="#5C8EE6"></path>
  </symbol>
  <symbol viewBox="0 0 31 16" fill="none" xmlns="http://www.w3.org/2000/svg" id="arrow-prew">
<path d="M8.16158 0.686292L8.86869 1.3934L2.41405 7.84803L31 7.84795L30.9997 8.84819L2.42381 8.84801L8.86869 15.2929L8.16158 16L1.00959 8.84801H0.999926V8.83835L0.504726 8.34315L8.16158 0.686292Z" fill="white"/>
</symbol>
<symbol viewBox="0 0 31 16" fill="none" xmlns="http://www.w3.org/2000/svg" id="arrow-next">
<path d="M22.8384 0.686292L22.1313 1.3934L28.5859 7.84803L0 7.84795L0.000345267 8.84819L28.5762 8.84801L22.1313 15.2929L22.8384 16L29.9904 8.84801H30.0001V8.83835L30.4953 8.34315L22.8384 0.686292Z" fill="white"/>
</symbol>
<symbol viewBox="0 0 78 68" xmlns="http://www.w3.org/2000/svg" id="AG">
<path d="M54.5713 15.3417H47.0292L45.1122 12.262L41.404 6.51113L32.6049 20.1812L28.5511 26.5291L25.2514 31.6829L21.1975 37.9993L17.8664 43.1531L13.8126 49.501H6.30191L10.3558 43.1531L13.6554 37.9993L17.7093 31.6829L21.009 26.5291L37.633 0.666016H45.1751L48.8519 6.41686L52.6229 12.262L54.5713 15.3417Z" />
<path d="M76.5062 49.501H20.789L25.2828 43.1531L28.5825 37.9994L32.6364 31.6829L35.9675 26.5291L40.0213 20.1812H57.7138L61.7677 26.5291H43.4781L40.1785 31.6829L36.1246 37.9994L32.8249 43.1531H64.9102L61.6106 37.9994H42.6611L46.8721 31.6829H65.0673L69.1526 37.9994L72.4523 43.1531L76.5062 49.501Z" />
<path d="M11.1414 67.3821L10.2301 65.748H5.23345L6.45904 63.4539H9.03592L7.21325 60.0285L3.28508 67.3821H0.111115L5.57913 57.4831C5.86196 56.9488 6.30191 56.6974 6.86757 56.6974H7.5275C8.06173 56.6974 8.50169 56.9488 8.78451 57.4831L14.2525 67.3821H11.1414Z" />
<path d="M19.5006 67.3821C18.6835 67.3821 17.9293 67.2564 17.2379 67.005C16.5466 66.7536 15.9495 66.3765 15.4467 65.9051C14.9439 65.4651 14.5354 64.8995 14.2525 64.2395C13.9697 63.5796 13.844 62.8568 13.844 62.0398C13.844 61.2541 13.9697 60.4999 14.2525 59.8714C14.5354 59.2115 14.9439 58.6458 15.4467 58.1744C15.9495 57.7031 16.5466 57.326 17.2379 57.0746C17.9293 56.8232 18.6835 56.6974 19.5006 56.6974H25.22V59.4315H19.312C18.9349 59.4315 18.5892 59.4943 18.275 59.62C17.9293 59.7457 17.6779 59.9343 17.4265 60.1542C17.2065 60.4056 17.018 60.657 16.8923 61.0027C16.7666 61.317 16.7037 61.6627 16.7037 62.0398C16.7037 62.4169 16.7666 62.7625 16.8923 63.1082C17.018 63.4225 17.2065 63.6739 17.4265 63.8939C17.6779 64.1453 17.9293 64.3024 18.275 64.4281C18.5892 64.5538 18.9349 64.6166 19.312 64.6166H22.486V63.1711H19.0292V60.877H25.22V67.3821H19.5006Z" />
<path d="M34.8361 67.3821V59.4315H30.8765V56.6974H41.624V59.4315H37.6959V67.3821H34.8361Z" />
<path d="M46.7149 63.1711V60.877H53.0314V63.1711H46.7149ZM42.881 67.3821V56.6974H53.1257V59.4315H45.7407V64.6166H53.1571V67.3821H42.881Z" />
<path d="M60.165 67.3821C59.3165 67.3821 58.5623 67.2564 57.8709 67.005C57.1796 66.7536 56.5825 66.3765 56.1111 65.9051C55.6083 65.4651 55.1998 64.8995 54.917 64.2395C54.6341 63.5796 54.477 62.8568 54.477 62.0398C54.477 61.2541 54.6341 60.4999 54.917 59.8714C55.1998 59.2115 55.6083 58.6458 56.1111 58.1744C56.5825 57.7031 57.1796 57.326 57.8709 57.0746C58.5623 56.8232 59.3165 56.6974 60.165 56.6974H65.3816V59.4315H59.945C59.5679 59.4315 59.2222 59.4943 58.908 59.62C58.5937 59.7457 58.3109 59.9343 58.0909 60.1542C57.8709 60.4056 57.6824 60.657 57.5567 61.0027C57.431 61.317 57.3681 61.6627 57.3681 62.0398C57.3681 62.4169 57.431 62.7625 57.5567 63.1082C57.6824 63.4225 57.8709 63.6739 58.0909 63.8939C58.3109 64.1453 58.5937 64.3024 58.908 64.4281C59.2222 64.5538 59.5679 64.6166 59.945 64.6166H65.3816V67.3821H60.165Z" />
<path d="M75.0292 67.3821V63.2339H70.8496V60.6256H75.0292V56.6974H77.8889V67.3821H75.0292ZM66.9843 67.3821V56.6974H69.8754V67.3821H66.9843Z" />
</symbol>
<symbol viewBox="0 0 58 78"  xmlns="http://www.w3.org/2000/svg" id="AP">
<path d="M9.61919 67.8496C9.61919 67.9299 9.59242 67.9888 9.54423 68.0317C9.49604 68.0799 9.43179 68.1013 9.35147 68.1013H7.79335C7.72374 68.1013 7.66484 68.0745 7.61665 68.0263C7.56846 67.9781 7.53098 67.9192 7.51492 67.8496L6.83491 65.0546H3.45094L2.77094 67.8496C2.75487 67.9192 2.71739 67.9781 2.6692 68.0263C2.62101 68.0745 2.56212 68.1013 2.49251 68.1013H0.934383C0.854068 68.1013 0.789815 68.0799 0.741625 68.0317C0.693436 67.9888 0.666664 67.9299 0.666664 67.8496C0.666664 67.8389 0.67202 67.8282 0.67202 67.8229C0.677374 67.8121 0.682727 67.7961 0.682727 67.7747L3.09755 58.5437C3.18322 58.201 3.31173 57.9333 3.47772 57.7352C3.6437 57.5424 3.82575 57.3925 4.01851 57.2854C4.20591 57.1837 4.40402 57.1194 4.60749 57.0873C4.8056 57.0605 4.98765 57.0445 5.14293 57.0445C5.29821 57.0445 5.48025 57.0605 5.67837 57.0873C5.88183 57.1194 6.07994 57.1837 6.26735 57.2854C6.46011 57.3925 6.6368 57.5424 6.80814 57.7352C6.97413 57.9333 7.10263 58.201 7.1883 58.5437L9.60313 67.7747C9.60313 67.7961 9.60848 67.8121 9.60848 67.8229C9.61384 67.8282 9.61919 67.8389 9.61919 67.8496ZM5.37852 59.0042C5.3571 58.9132 5.33569 58.8543 5.30356 58.8168C5.27679 58.7847 5.22324 58.7686 5.14293 58.7686C5.06261 58.7686 5.00907 58.7847 4.9823 58.8168C4.95017 58.8543 4.92875 58.9132 4.90734 59.0042L3.84717 63.3734H6.43869L5.37852 59.0042Z" />
<path d="M16.9065 67.7051C16.9065 67.8121 16.8851 67.8871 16.8423 67.9246C16.7941 67.9621 16.7191 67.9942 16.612 68.0103C16.5049 68.0424 16.3497 68.0692 16.1462 68.0906C15.9481 68.1173 15.7285 68.1388 15.493 68.1602C15.2574 68.1816 15.0164 68.1923 14.7701 68.203C14.5238 68.2137 14.3043 68.2191 14.1062 68.2191C13.6296 68.2191 13.1799 68.1816 12.7676 68.1013C12.3553 68.021 11.9965 67.871 11.6967 67.6515C11.3915 67.432 11.1505 67.1214 10.9739 66.7306C10.7972 66.3397 10.7061 65.831 10.7061 65.1992V57.4568C10.7061 57.3765 10.7383 57.3068 10.7972 57.2479C10.8561 57.189 10.9257 57.1623 11.0006 57.1623H12.457C12.5373 57.1623 12.6069 57.189 12.6658 57.2479C12.7247 57.3068 12.7569 57.3765 12.7569 57.4568V65.1992C12.7569 65.6918 12.8372 66.0238 13.0032 66.2005C13.1691 66.3772 13.469 66.4682 13.9027 66.4682H16.612C16.6923 66.4682 16.7566 66.495 16.8155 66.5539C16.8744 66.6128 16.9065 66.6824 16.9065 66.7627V67.7051Z" />
<path d="M20.3494 67.8068C20.3494 67.8871 20.3226 67.9514 20.2637 68.0103C20.2048 68.0692 20.1352 68.1013 20.0549 68.1013H18.5985C18.5182 68.1013 18.4539 68.0692 18.395 68.0103C18.3361 67.9514 18.304 67.8871 18.304 67.8068V57.4407C18.304 57.3657 18.3361 57.2961 18.395 57.2426C18.4539 57.189 18.5182 57.1623 18.5985 57.1623H20.0549C20.1352 57.1623 20.2048 57.189 20.2637 57.2426C20.3226 57.2961 20.3494 57.3657 20.3494 57.4407V67.8068Z" />
<path d="M30.6833 67.8496C30.6833 67.9299 30.6619 67.9888 30.6137 68.0317C30.5655 68.0799 30.5013 68.1013 30.421 68.1013H28.8575C28.7932 68.1013 28.7343 68.0745 28.6862 68.0263C28.6326 67.9781 28.6005 67.9192 28.5791 67.8496L27.9044 65.0546H24.5151L23.8404 67.8496C23.819 67.9192 23.7869 67.9781 23.7387 68.0263C23.6852 68.0745 23.6263 68.1013 23.562 68.1013H21.9985C21.9236 68.1013 21.8593 68.0799 21.8058 68.0317C21.7576 67.9888 21.7362 67.9299 21.7362 67.8496C21.7362 67.8389 21.7362 67.8282 21.7415 67.8229C21.7469 67.8121 21.7469 67.7961 21.7469 67.7747L24.1617 58.5437C24.2527 58.201 24.3812 57.9333 24.5472 57.7352C24.7132 57.5424 24.8899 57.3925 25.0826 57.2854C25.2754 57.1837 25.4735 57.1194 25.6716 57.0873C25.8751 57.0605 26.0518 57.0445 26.2124 57.0445C26.3677 57.0445 26.5444 57.0605 26.7479 57.0873C26.9513 57.1194 27.1441 57.1837 27.3368 57.2854C27.5296 57.3925 27.7063 57.5424 27.8723 57.7352C28.0383 57.9333 28.1668 58.201 28.2578 58.5437L30.6726 67.7747C30.6726 67.7961 30.6726 67.8121 30.678 67.8229C30.6833 67.8282 30.6833 67.8389 30.6833 67.8496ZM26.448 59.0042C26.4266 58.9132 26.3998 58.8543 26.3731 58.8168C26.3409 58.7847 26.2874 58.7686 26.2124 58.7686C26.1321 58.7686 26.0786 58.7847 26.0464 58.8168C26.0197 58.8543 25.9929 58.9132 25.9768 59.0042L24.9167 63.3734H27.5082L26.448 59.0042Z" />
<path d="M40.3426 67.5123C40.3426 67.6783 40.2891 67.8175 40.1767 67.9299C40.0589 68.0424 39.9196 68.1013 39.7537 68.1013H38.2651C38.0938 68.1013 37.9278 68.0799 37.7725 68.0317C37.6226 67.9888 37.4888 67.8336 37.371 67.5712L34.0994 60.4017C34.062 60.3214 34.0191 60.2839 33.9709 60.2839C33.9174 60.2839 33.896 60.3214 33.896 60.4017V67.8068C33.896 67.8871 33.8692 67.9514 33.8157 68.0103C33.7621 68.0692 33.6925 68.1013 33.6175 68.1013H32.3646C32.2843 68.1013 32.2147 68.0692 32.1558 68.0103C32.0969 67.9514 32.0701 67.8871 32.0701 67.8068V57.7513C32.0701 57.5853 32.1237 57.4461 32.2415 57.3336C32.3539 57.2212 32.4931 57.1623 32.6591 57.1623H34.2494C34.4046 57.1623 34.5331 57.189 34.6242 57.2479C34.7152 57.3068 34.8062 57.4354 34.8972 57.6335L38.324 65.1992C38.3562 65.2795 38.3937 65.317 38.4418 65.317C38.4954 65.317 38.5168 65.2742 38.5168 65.1831V57.4407C38.5168 57.2533 38.6132 57.1623 38.7952 57.1623H40.0642C40.2516 57.1623 40.3426 57.2533 40.3426 57.4407V67.5123Z" />
<path d="M49.0596 67.6462C49.0596 67.7533 49.0275 67.8282 48.9686 67.871C48.9097 67.9192 48.8347 67.9514 48.733 67.9835C48.6741 68.0049 48.5777 68.0263 48.4331 68.0477C48.2885 68.0745 48.1172 68.0959 47.9084 68.1227C47.7049 68.1495 47.4747 68.1709 47.2177 68.187C46.966 68.2084 46.6929 68.2191 46.4092 68.2191C45.9701 68.2191 45.4989 68.1548 45.0117 68.0263C44.5191 67.8978 44.0746 67.6676 43.6677 67.3303C43.2608 66.9876 42.9288 66.5324 42.6611 65.9488C42.3934 65.3705 42.2595 64.6263 42.2595 63.716V61.5475C42.2595 60.6266 42.3934 59.8716 42.6611 59.288C42.9288 58.7043 43.2608 58.2439 43.6677 57.9119C44.0746 57.5799 44.5191 57.3497 45.0117 57.2265C45.4989 57.1034 45.9701 57.0445 46.4092 57.0445C46.6929 57.0445 46.966 57.0552 47.2177 57.0713C47.4747 57.0927 47.7049 57.1141 47.9084 57.1409C48.1172 57.1623 48.2885 57.189 48.4331 57.2212C48.5777 57.2479 48.6741 57.2694 48.733 57.2801C48.8347 57.3068 48.9097 57.3443 48.9686 57.3925C49.0275 57.4353 49.0596 57.5103 49.0596 57.6174V58.6026C49.0596 58.6936 49.0382 58.7686 48.9953 58.8275C48.9471 58.8864 48.8722 58.9132 48.7651 58.9132H48.733C48.6098 58.9025 48.4545 58.8917 48.2725 58.8757C48.0904 58.865 47.8977 58.8489 47.6889 58.8382C47.4854 58.8328 47.2712 58.8221 47.057 58.8114C46.8429 58.8007 46.634 58.7954 46.4359 58.7954C46.1254 58.7954 45.8362 58.8436 45.5792 58.9346C45.3169 59.031 45.092 59.1809 44.9099 59.3951C44.7225 59.6039 44.5726 59.8877 44.4655 60.241C44.3584 60.5944 44.3049 61.0281 44.3049 61.5475V63.716C44.3049 64.2247 44.3584 64.6531 44.4655 65.0065C44.5726 65.3598 44.7225 65.649 44.9099 65.8632C45.092 66.0773 45.3169 66.2326 45.5792 66.329C45.8362 66.42 46.1254 66.4682 46.4359 66.4682C46.634 66.4682 46.8429 66.4628 47.057 66.4521C47.2712 66.4414 47.4854 66.4307 47.6889 66.42C47.8977 66.4147 48.0904 66.3986 48.2725 66.3879C48.4545 66.3718 48.6098 66.3611 48.733 66.3504H48.7651C48.8722 66.3504 48.9471 66.3772 48.9953 66.4361C49.0382 66.495 49.0596 66.5699 49.0596 66.6556V67.6462Z" />
<path d="M57.3482 67.7051C57.3482 67.8121 57.3267 67.8871 57.2839 67.9246C57.2357 67.9621 57.1608 67.9942 57.0537 68.0103C56.9359 68.0317 56.8074 68.0531 56.6628 68.0799C56.5182 68.1013 56.3415 68.1227 56.1327 68.1441C55.9239 68.1655 55.6669 68.1816 55.367 68.1977C55.0672 68.2137 54.6977 68.2191 54.2533 68.2191C53.7768 68.2191 53.327 68.1816 52.9147 68.1013C52.5024 68.021 52.1384 67.871 51.8331 67.6515C51.528 67.432 51.287 67.1214 51.1103 66.7306C50.9283 66.3397 50.8426 65.831 50.8426 65.1992V60.0644C50.8426 59.4325 50.9283 58.9239 51.1103 58.533C51.287 58.1368 51.528 57.8316 51.8331 57.612C52.1384 57.3925 52.5024 57.2426 52.9147 57.1623C53.327 57.082 53.7768 57.0445 54.2533 57.0445C54.6977 57.0445 55.0672 57.0498 55.367 57.0659C55.6669 57.082 55.9239 57.098 56.1327 57.1194C56.3415 57.1355 56.5182 57.1623 56.6628 57.1837C56.8074 57.2105 56.9359 57.2319 57.0537 57.2479C57.1608 57.2694 57.2357 57.3015 57.2839 57.339C57.3267 57.3765 57.3482 57.4514 57.3482 57.5585V58.5009C57.3482 58.5812 57.316 58.6508 57.2571 58.7097C57.1982 58.7686 57.134 58.7954 57.0537 58.7954H54.0499C53.6162 58.7954 53.3163 58.8864 53.145 59.0631C52.9736 59.2398 52.888 59.5717 52.888 60.0644V61.6546H56.877C56.9573 61.6546 57.0215 61.6814 57.0804 61.7403C57.1393 61.7992 57.1715 61.8688 57.1715 61.9491V63.0093C57.1715 63.0842 57.1393 63.1538 57.0804 63.2127C57.0215 63.2716 56.9573 63.3038 56.877 63.3038H52.888V65.1992C52.888 65.6918 52.9736 66.0238 53.145 66.2005C53.3163 66.3772 53.6162 66.4682 54.0499 66.4682H57.0537C57.134 66.4682 57.1982 66.495 57.2571 66.5539C57.316 66.6128 57.3482 66.6824 57.3482 66.7627V67.7051Z" />
<path d="M6.13884 73.0166C6.13884 73.4289 6.06388 73.7769 5.91931 74.0554C5.76939 74.3391 5.57128 74.564 5.32498 74.7407C5.07332 74.9121 4.78954 75.0299 4.46292 75.1048C4.1363 75.1744 3.79362 75.2119 3.42953 75.2119C3.30102 75.2119 3.15645 75.2066 2.99582 75.1958C2.82983 75.1905 2.69598 75.1798 2.58889 75.1744V77.6267C2.58889 77.6749 2.57282 77.7178 2.5407 77.7552C2.50322 77.7927 2.46038 77.8141 2.41219 77.8141H1.47518C1.42163 77.8141 1.3788 77.7927 1.34132 77.7552C1.30384 77.7178 1.28242 77.6749 1.28242 77.6267V71.164C1.28242 71.073 1.30919 71.0034 1.36273 70.9659C1.41628 70.923 1.49124 70.8963 1.58762 70.8856C1.82857 70.8481 2.11235 70.816 2.43361 70.7945C2.75487 70.7731 3.08685 70.7624 3.42953 70.7624C3.79362 70.7624 4.1363 70.7945 4.46292 70.8641C4.78954 70.9338 5.07868 71.0515 5.32498 71.2229C5.57128 71.3889 5.76939 71.6138 5.91931 71.8922C6.06388 72.1706 6.13884 72.5186 6.13884 72.9309V73.0166ZM4.83237 72.9256C4.83237 72.5294 4.71458 72.2509 4.47898 72.0849C4.24875 71.9136 3.89536 71.8333 3.42417 71.8333C3.37598 71.8333 3.31173 71.8333 3.23141 71.8386C3.15645 71.8386 3.07614 71.844 2.99582 71.8494C2.91015 71.8494 2.83519 71.8547 2.76558 71.8547C2.69062 71.8601 2.63172 71.8654 2.58889 71.8708V74.1143C2.62637 74.1143 2.68527 74.1143 2.76558 74.1196C2.84054 74.1196 2.92086 74.125 3.00653 74.1303C3.0922 74.1303 3.17252 74.1357 3.25283 74.1357C3.32779 74.141 3.38669 74.141 3.42417 74.141C3.93284 74.141 4.29158 74.05 4.51111 73.8573C4.72529 73.6698 4.83237 73.3861 4.83237 73.0113V72.9256Z" />
<path d="M12.2321 77.7017C12.2321 77.7767 12.1947 77.8141 12.1197 77.8141H10.9739C10.9257 77.8141 10.8828 77.7927 10.8614 77.7552C10.8346 77.7178 10.8079 77.6749 10.7864 77.6267L9.43179 75.1262H9.30328C9.17478 75.1262 9.03556 75.1209 8.86958 75.1155C8.70895 75.1048 8.57509 75.0941 8.468 75.0888V77.6267C8.468 77.6749 8.44658 77.7178 8.41446 77.7552C8.38233 77.7927 8.33949 77.8141 8.28595 77.8141H7.34893C7.30074 77.8141 7.25791 77.7927 7.22043 77.7552C7.18295 77.7178 7.16153 77.6749 7.16153 77.6267V71.164C7.16153 71.073 7.1883 71.0034 7.24185 70.9659C7.29539 70.923 7.37035 70.8963 7.46138 70.8856C7.70768 70.8481 7.99146 70.816 8.30737 70.7945C8.62863 70.7731 8.9606 70.7624 9.30864 70.7624C9.66738 70.7624 10.0154 70.7999 10.342 70.8695C10.6687 70.9445 10.9524 71.0623 11.1987 71.2229C11.4504 71.3835 11.6485 71.6031 11.7931 71.8761C11.943 72.1492 12.0126 72.4812 12.0126 72.8828V72.9684C12.0126 73.4717 11.9002 73.8733 11.6699 74.1892C11.4397 74.4998 11.1291 74.7354 10.7383 74.8853L12.2107 77.6267C12.2268 77.6428 12.2321 77.6696 12.2321 77.7017ZM10.7115 72.8828C10.7115 72.5294 10.5937 72.2724 10.3581 72.1171C10.1225 71.9564 9.76912 71.8815 9.30328 71.8815C9.24974 71.8815 9.18549 71.8815 9.11053 71.8868C9.03021 71.8868 8.94989 71.8922 8.86958 71.8922C8.78926 71.8975 8.7143 71.8975 8.63934 71.9029C8.56973 71.9082 8.51084 71.9136 8.468 71.919V74.0286C8.50548 74.0286 8.56438 74.0286 8.63934 74.0339C8.71966 74.0393 8.79997 74.0393 8.88564 74.0446C8.97131 74.0446 9.05163 74.05 9.12659 74.0554C9.2069 74.0554 9.2658 74.0554 9.30328 74.0554C9.79053 74.0554 10.1493 73.9804 10.3742 73.8251C10.599 73.6645 10.7115 73.3807 10.7115 72.9684V72.8828Z" />
<path d="M18.2558 74.9603C18.2558 75.4796 18.1916 75.924 18.0577 76.2935C17.9185 76.6629 17.7364 76.9628 17.5008 77.1984C17.2599 77.434 16.9815 77.6053 16.6549 77.7178C16.3282 77.8302 15.9748 77.8891 15.584 77.8891C15.1985 77.8891 14.8451 77.8302 14.5185 77.7178C14.1918 77.6053 13.9134 77.434 13.6725 77.1984C13.4369 76.9628 13.2548 76.6629 13.1156 76.2935C12.9817 75.924 12.9175 75.4796 12.9175 74.9603V73.6913C12.9175 73.1772 12.9817 72.7328 13.1156 72.3634C13.2548 71.9886 13.4369 71.6887 13.6725 71.4531C13.9134 71.2175 14.1918 71.0462 14.5185 70.9338C14.8451 70.8213 15.1985 70.7624 15.584 70.7624C15.9748 70.7624 16.3282 70.8213 16.6549 70.9338C16.9815 71.0462 17.2599 71.2175 17.5008 71.4531C17.7364 71.6887 17.9185 71.9886 18.0577 72.3634C18.1916 72.7328 18.2558 73.1772 18.2558 73.6913V74.9603ZM16.9547 73.6913C16.9547 73.0648 16.8423 72.6097 16.6174 72.3259C16.3978 72.0421 16.0498 71.8975 15.584 71.8975C15.1235 71.8975 14.7755 72.0421 14.5559 72.3259C14.331 72.6097 14.2186 73.0648 14.2186 73.6913V74.9603C14.2186 75.5867 14.331 76.0418 14.5559 76.3256C14.7755 76.6094 15.1235 76.754 15.584 76.754C16.0498 76.754 16.3978 76.6094 16.6174 76.3256C16.8423 76.0418 16.9547 75.5867 16.9547 74.9603V73.6913Z" />
<path d="M24.5365 75.0138C24.5365 75.9455 24.2848 76.6576 23.7708 77.1502C23.2622 77.6428 22.534 77.8891 21.5862 77.8891C21.4149 77.8891 21.2382 77.8837 21.0508 77.8784C20.8688 77.873 20.6867 77.8623 20.5154 77.8516C20.344 77.8356 20.1887 77.8249 20.0495 77.8141C19.905 77.7981 19.7979 77.7874 19.7336 77.7767C19.648 77.7606 19.5891 77.7338 19.5462 77.691C19.5087 77.6481 19.4873 77.5785 19.4873 77.4822V71.164C19.4873 71.073 19.5087 71.0034 19.5462 70.9605C19.5891 70.9177 19.648 70.8856 19.7336 70.8749C19.7979 70.8641 19.905 70.8481 20.0495 70.8374C20.1887 70.8267 20.344 70.8106 20.5154 70.7999C20.6867 70.7892 20.8688 70.7785 21.0508 70.7731C21.2382 70.7678 21.4149 70.7624 21.5862 70.7624C22.534 70.7624 23.2622 71.0087 23.7708 71.5013C24.2848 71.9886 24.5365 72.7007 24.5365 73.6377V75.0138ZM23.2354 73.6377C23.2354 73.2897 23.1926 72.9952 23.1069 72.7703C23.0212 72.5401 22.9034 72.358 22.7589 72.2242C22.6089 72.0903 22.4376 71.9939 22.2341 71.9404C22.0307 71.8868 21.8111 71.8601 21.5809 71.8601C21.4042 71.8601 21.2543 71.8654 21.1311 71.8708C21.0026 71.8761 20.8902 71.8815 20.7938 71.8868V76.77C20.8902 76.7754 21.0026 76.7807 21.1311 76.7915C21.2543 76.7968 21.4042 76.7968 21.5809 76.7968C21.8111 76.7968 22.0307 76.77 22.2341 76.7165C22.4376 76.6683 22.6089 76.5719 22.7589 76.4381C22.9034 76.2988 23.0212 76.1221 23.1069 75.8919C23.1926 75.6617 23.2354 75.3725 23.2354 75.0191V73.6377Z" />
<path d="M30.8654 75.2333C30.8654 75.7313 30.8011 76.1489 30.6726 76.4862C30.5441 76.8289 30.3674 77.0966 30.1372 77.3055C29.9069 77.5143 29.6339 77.6589 29.318 77.7499C29.0021 77.8409 28.6594 77.8891 28.2846 77.8891C27.9098 77.8891 27.5617 77.8409 27.2458 77.7499C26.9299 77.6589 26.6568 77.5143 26.4266 77.3055C26.2017 77.0966 26.025 76.8289 25.8965 76.4862C25.768 76.1489 25.7038 75.7313 25.7038 75.2333V71.0141C25.7038 70.9659 25.7198 70.923 25.7573 70.8909C25.7948 70.8534 25.8376 70.8374 25.8912 70.8374H26.8175C26.871 70.8374 26.9139 70.8534 26.9513 70.8909C26.9888 70.923 27.0049 70.9659 27.0049 71.0141V75.2387C27.0049 75.5064 27.0263 75.742 27.0638 75.9401C27.1013 76.1329 27.1655 76.2989 27.2672 76.4327C27.3636 76.5666 27.4921 76.6629 27.6528 76.7218C27.8187 76.7861 28.0276 76.8182 28.2846 76.8182C28.5309 76.8182 28.7397 76.7861 28.9057 76.7218C29.0717 76.6629 29.2055 76.5666 29.3019 76.4327C29.3983 76.2989 29.4679 76.1329 29.5054 75.9401C29.5429 75.742 29.5589 75.5064 29.5589 75.2387V71.0141C29.5589 70.9659 29.5803 70.923 29.6178 70.8909C29.6553 70.8534 29.6981 70.8374 29.7463 70.8374H30.678C30.7262 70.8374 30.769 70.8534 30.8065 70.8909C30.844 70.923 30.8654 70.9659 30.8654 71.0141V75.2333Z"/>
<path d="M36.375 77.5196C36.375 77.5893 36.359 77.6374 36.3215 77.6696C36.284 77.6963 36.2305 77.7178 36.1662 77.7392C36.1287 77.7499 36.0645 77.7659 35.9788 77.782C35.8878 77.7981 35.7754 77.8088 35.6415 77.8248C35.513 77.8409 35.3631 77.857 35.2024 77.8677C35.0418 77.8837 34.8651 77.8891 34.6831 77.8891C34.4046 77.8891 34.1048 77.8463 33.7942 77.7659C33.4783 77.6856 33.1945 77.5357 32.9375 77.3215C32.6805 77.102 32.4663 76.8129 32.295 76.4434C32.1237 76.074 32.038 75.5974 32.038 75.0138V73.6377C32.038 73.0487 32.1237 72.5668 32.295 72.192C32.4663 71.8226 32.6805 71.5281 32.9375 71.3139C33.1945 71.1051 33.4783 70.9605 33.7942 70.8802C34.1048 70.7999 34.4046 70.7624 34.6831 70.7624C34.8651 70.7624 35.0418 70.7678 35.2024 70.7838C35.3631 70.7945 35.513 70.8106 35.6415 70.8213C35.7754 70.8374 35.8878 70.8588 35.9788 70.8749C36.0645 70.8963 36.1287 70.907 36.1662 70.9123C36.2305 70.9338 36.284 70.9552 36.3215 70.9819C36.359 71.0087 36.375 71.0623 36.375 71.1265V71.7583C36.375 71.8119 36.359 71.8601 36.3322 71.8975C36.3054 71.935 36.2573 71.9564 36.1876 71.9564H36.1662C36.0859 71.9511 35.9895 71.9404 35.8717 71.9297C35.7593 71.9243 35.6361 71.9136 35.5023 71.9083C35.3684 71.9029 35.2346 71.8975 35.1007 71.8868C34.9615 71.8815 34.8276 71.8815 34.7045 71.8815C34.5064 71.8815 34.319 71.9083 34.153 71.9672C33.987 72.0261 33.8478 72.1278 33.73 72.2616C33.6068 72.3955 33.5158 72.5722 33.4462 72.7971C33.3766 73.0273 33.3445 73.3057 33.3445 73.6377V75.0138C33.3445 75.3404 33.3766 75.6135 33.4462 75.8437C33.5158 76.0686 33.6068 76.2507 33.73 76.3845C33.8478 76.5237 33.987 76.6201 34.153 76.679C34.319 76.7433 34.5064 76.77 34.7045 76.77C34.8276 76.77 34.9615 76.7647 35.1007 76.7593C35.2346 76.754 35.3684 76.7486 35.5023 76.7433C35.6361 76.7379 35.7593 76.7272 35.8717 76.7165C35.9895 76.7111 36.0859 76.7004 36.1662 76.6951H36.1876C36.2573 76.6951 36.3054 76.7165 36.3322 76.754C36.359 76.7914 36.375 76.8343 36.375 76.8932V77.5196Z" />
<path d="M42.0079 71.7583C42.0079 71.8065 41.9864 71.8494 41.949 71.8815C41.9115 71.9136 41.8686 71.9243 41.8205 71.9243H40.1767V77.6267C40.1767 77.6749 40.1606 77.7178 40.1231 77.7552C40.0856 77.7927 40.0374 77.8141 39.9893 77.8141H39.0576C39.0094 77.8141 38.9666 77.7927 38.9291 77.7552C38.8916 77.7178 38.8702 77.6749 38.8702 77.6267V71.9243H37.2317C37.1782 71.9243 37.1354 71.9136 37.0979 71.8815C37.0604 71.8494 37.0443 71.8065 37.0443 71.7583V71.0141C37.0443 70.9659 37.0604 70.923 37.0979 70.8909C37.1354 70.8534 37.1782 70.8374 37.2317 70.8374H41.8205C41.8686 70.8374 41.9115 70.8534 41.949 70.8909C41.9864 70.923 42.0079 70.9659 42.0079 71.0141V71.7583Z" />
<path d="M44.2513 77.6267C44.2513 77.6749 44.2299 77.7178 44.1924 77.7552C44.155 77.7927 44.1121 77.8141 44.0639 77.8141H43.1323C43.0841 77.8141 43.0413 77.7927 43.0038 77.7552C42.9663 77.7178 42.9449 77.6749 42.9449 77.6267V71.0141C42.9449 70.9659 42.9663 70.923 43.0038 70.8909C43.0413 70.8534 43.0841 70.8374 43.1323 70.8374H44.0639C44.1121 70.8374 44.155 70.8534 44.1924 70.8909C44.2299 70.923 44.2513 70.9659 44.2513 71.0141V77.6267Z"/>
<path d="M50.8105 74.9603C50.8105 75.4796 50.7462 75.924 50.6124 76.2935C50.4785 76.6629 50.2911 76.9628 50.0555 77.1984C49.8145 77.434 49.5361 77.6053 49.2095 77.7178C48.8829 77.8302 48.5295 77.8891 48.144 77.8891C47.7531 77.8891 47.3997 77.8302 47.0731 77.7178C46.7518 77.6053 46.4681 77.434 46.2325 77.1984C45.9915 76.9628 45.8095 76.6629 45.6756 76.2935C45.5417 75.924 45.4721 75.4796 45.4721 74.9603V73.6913C45.4721 73.1772 45.5417 72.7328 45.6756 72.3634C45.8095 71.9886 45.9915 71.6887 46.2325 71.4531C46.4681 71.2175 46.7518 71.0462 47.0731 70.9338C47.3997 70.8213 47.7531 70.7624 48.144 70.7624C48.5295 70.7624 48.8829 70.8213 49.2095 70.9338C49.5361 71.0462 49.8145 71.2175 50.0555 71.4531C50.2911 71.6887 50.4785 71.9886 50.6124 72.3634C50.7462 72.7328 50.8105 73.1772 50.8105 73.6913V74.9603ZM49.5093 73.6913C49.5093 73.0648 49.3969 72.6097 49.172 72.3259C48.9525 72.0421 48.6045 71.8975 48.144 71.8975C47.6781 71.8975 47.3355 72.0421 47.1106 72.3259C46.8857 72.6097 46.7786 73.0648 46.7786 73.6913V74.9603C46.7786 75.5867 46.8857 76.0418 47.1106 76.3256C47.3355 76.6094 47.6781 76.754 48.144 76.754C48.6045 76.754 48.9525 76.6094 49.172 76.3256C49.3969 76.0418 49.5093 75.5867 49.5093 74.9603V73.6913Z" />
<path d="M57.316 77.4393C57.316 77.5411 57.2839 77.6321 57.2089 77.707C57.1393 77.7766 57.0483 77.8141 56.9412 77.8141H55.9935C55.8811 77.8141 55.7793 77.7981 55.683 77.7713C55.5812 77.7445 55.4955 77.6428 55.4206 77.4768L53.3377 72.9042C53.311 72.8506 53.2842 72.8292 53.2521 72.8292C53.2199 72.8292 53.2092 72.8506 53.2092 72.9042V77.6267C53.2092 77.6749 53.1878 77.7178 53.1557 77.7552C53.1182 77.7927 53.0807 77.8141 53.0272 77.8141H52.2294C52.1812 77.8141 52.1384 77.7927 52.1009 77.7552C52.0634 77.7178 52.042 77.6749 52.042 77.6267V71.2122C52.042 71.1051 52.0794 71.0194 52.1491 70.9445C52.224 70.8749 52.3097 70.8374 52.4168 70.8374H53.4341C53.5305 70.8374 53.6108 70.8588 53.6697 70.8963C53.7286 70.9338 53.7875 71.0141 53.8464 71.1372L56.031 75.9615C56.0524 76.0151 56.0738 76.0365 56.1059 76.0365C56.1381 76.0365 56.1541 76.0097 56.1541 75.9562V71.0141C56.1541 70.8963 56.213 70.8374 56.3308 70.8374H57.1393C57.2571 70.8374 57.316 70.8963 57.316 71.0141V77.4393Z" />
<path fill-rule="evenodd" clip-rule="evenodd" d="M28.9699 5.59957C31.54 5.59957 33.9923 6.10288 36.2305 7.01848V24.5648C36.2305 28.5431 33.0071 31.7664 29.0288 31.7664C27.3368 31.7664 25.7841 31.1828 24.5526 30.2083V36.5854C25.9447 37.1048 27.4546 37.3885 29.0288 37.3885C36.8516 37.3885 41.8794 31.2096 41.8794 23.7188V3.76302C38.1259 1.44992 33.7032 0.111328 28.9699 0.111328C15.3537 0.111328 4.31835 11.1467 4.31835 24.7629C4.31835 32.5375 7.9165 39.4714 13.5386 43.9905V36.1356C11.1934 32.9551 9.80124 29.0196 9.80124 24.7629C9.80124 14.1773 18.3843 5.59957 28.9699 5.59957Z" />
<path fill-rule="evenodd" clip-rule="evenodd" d="M29.0449 43.9423C26.4748 43.9423 24.0225 43.439 21.7844 42.518V24.9717C21.7844 20.9988 25.0077 17.7701 28.986 17.7701C30.678 17.7701 32.2308 18.3537 33.4623 19.3336V12.9565C32.0701 12.4371 30.5602 12.1533 28.986 12.1533C21.1632 12.1533 16.1301 18.3269 16.1301 25.8231V45.7789C19.8889 48.092 24.3116 49.4305 29.0449 49.4305C42.6611 49.4305 53.6965 38.3898 53.6965 24.779C53.6965 17.0044 50.0983 10.0705 44.4709 5.55138V13.4063C46.8214 16.5868 48.2082 20.5222 48.2082 24.779C48.2082 35.3646 39.6305 43.9423 29.0449 43.9423Z" />
</symbol>

</svg>